<svg viewBox="0 0 1741.666748046875 400" xmlns="http://www.w3.org/2000/svg"><g><g><g><g><g><line x1="40" y1="377" x2="35" y2="377" style="visibility: inherit;" fill="rgb(0, 0, 0)" stroke="rgb(204, 204, 204)" stroke-width="1px"></line><line x1="40" y1="348" x2="35" y2="348" style="visibility: inherit;" fill="rgb(0, 0, 0)" stroke="rgb(204, 204, 204)" stroke-width="1px"></line><line x1="40" y1="319" x2="35" y2="319" style="visibility: inherit;" fill="rgb(0, 0, 0)" stroke="rgb(204, 204, 204)" stroke-width="1px"></line><line x1="40" y1="290" x2="35" y2="290" style="visibility: inherit;" fill="rgb(0, 0, 0)" stroke="rgb(204, 204, 204)" stroke-width="1px"></line><line x1="40" y1="261" x2="35" y2="261" style="visibility: inherit;" fill="rgb(0, 0, 0)" stroke="rgb(204, 204, 204)" stroke-width="1px"></line><line x1="40" y1="232" x2="35" y2="232" style="visibility: inherit;" fill="rgb(0, 0, 0)" stroke="rgb(204, 204, 204)" stroke-width="1px"></line><line x1="40" y1="203" x2="35" y2="203" style="visibility: inherit;" fill="rgb(0, 0, 0)" stroke="rgb(204, 204, 204)" stroke-width="1px"></line><line x1="40" y1="174" x2="35" y2="174" style="visibility: inherit;" fill="rgb(0, 0, 0)" stroke="rgb(204, 204, 204)" stroke-width="1px"></line><line x1="40" y1="145" x2="35" y2="145" style="visibility: inherit;" fill="rgb(0, 0, 0)" stroke="rgb(204, 204, 204)" stroke-width="1px"></line><line x1="40" y1="116" x2="35" y2="116" style="visibility: inherit;" fill="rgb(0, 0, 0)" stroke="rgb(204, 204, 204)" stroke-width="1px"></line><line x1="40" y1="86.99999999999999" x2="35" y2="86.99999999999999" style="visibility: inherit;" fill="rgb(0, 0, 0)" stroke="rgb(204, 204, 204)" stroke-width="1px"></line><line x1="40" y1="58" x2="35" y2="58" style="visibility: inherit;" fill="rgb(0, 0, 0)" stroke="rgb(204, 204, 204)" stroke-width="1px"></line><line x1="40" y1="28.999999999999982" x2="35" y2="28.999999999999982" style="visibility: inherit;" fill="rgb(0, 0, 0)" stroke="rgb(204, 204, 204)" stroke-width="1px"></line><line x1="40" y1="0" x2="35" y2="0" style="visibility: inherit;" fill="rgb(0, 0, 0)" stroke="rgb(204, 204, 204)" stroke-width="1px"></line></g><g transform="translate(30, 0)"><text x="0" y="377" dx="0em" dy="0.3em" style="text-anchor: end; visibility: hidden; font-family: Roboto, sans-serif; font-size: 12px; font-weight: 200;" fill="rgb(255, 255, 255)" stroke="none" stroke-width="1px">80</text><text x="0" y="348" dx="0em" dy="0.3em" style="text-anchor: end; visibility: inherit; font-family: Roboto, sans-serif; font-size: 12px; font-weight: 200;" fill="rgb(255, 255, 255)" stroke="none" stroke-width="1px">100</text><text x="0" y="319" dx="0em" dy="0.3em" style="text-anchor: end; visibility: inherit; font-family: Roboto, sans-serif; font-size: 12px; font-weight: 200;" fill="rgb(255, 255, 255)" stroke="none" stroke-width="1px">120</text><text x="0" y="290" dx="0em" dy="0.3em" style="text-anchor: end; visibility: inherit; font-family: Roboto, sans-serif; font-size: 12px; font-weight: 200;" fill="rgb(255, 255, 255)" stroke="none" stroke-width="1px">140</text><text x="0" y="261" dx="0em" dy="0.3em" style="text-anchor: end; visibility: inherit; font-family: Roboto, sans-serif; font-size: 12px; font-weight: 200;" fill="rgb(255, 255, 255)" stroke="none" stroke-width="1px">160</text><text x="0" y="232" dx="0em" dy="0.3em" style="text-anchor: end; visibility: inherit; font-family: Roboto, sans-serif; font-size: 12px; font-weight: 200;" fill="rgb(255, 255, 255)" stroke="none" stroke-width="1px">180</text><text x="0" y="203" dx="0em" dy="0.3em" style="text-anchor: end; visibility: inherit; font-family: Roboto, sans-serif; font-size: 12px; font-weight: 200;" fill="rgb(255, 255, 255)" stroke="none" stroke-width="1px">200</text><text x="0" y="174" dx="0em" dy="0.3em" style="text-anchor: end; visibility: inherit; font-family: Roboto, sans-serif; font-size: 12px; font-weight: 200;" fill="rgb(255, 255, 255)" stroke="none" stroke-width="1px">220</text><text x="0" y="145" dx="0em" dy="0.3em" style="text-anchor: end; visibility: inherit; font-family: Roboto, sans-serif; font-size: 12px; font-weight: 200;" fill="rgb(255, 255, 255)" stroke="none" stroke-width="1px">240</text><text x="0" y="116" dx="0em" dy="0.3em" style="text-anchor: end; visibility: inherit; font-family: Roboto, sans-serif; font-size: 12px; font-weight: 200;" fill="rgb(255, 255, 255)" stroke="none" stroke-width="1px">260</text><text x="0" y="86.99999999999999" dx="0em" dy="0.3em" style="text-anchor: end; visibility: inherit; font-family: Roboto, sans-serif; font-size: 12px; font-weight: 200;" fill="rgb(255, 255, 255)" stroke="none" stroke-width="1px">280</text><text x="0" y="58" dx="0em" dy="0.3em" style="text-anchor: end; visibility: inherit; font-family: Roboto, sans-serif; font-size: 12px; font-weight: 200;" fill="rgb(255, 255, 255)" stroke="none" stroke-width="1px">300</text><text x="0" y="28.999999999999982" dx="0em" dy="0.3em" style="text-anchor: end; visibility: inherit; font-family: Roboto, sans-serif; font-size: 12px; font-weight: 200;" fill="rgb(255, 255, 255)" stroke="none" stroke-width="1px">320</text><text x="0" y="0" dx="0em" dy="0.3em" style="text-anchor: end; visibility: hidden; font-family: Roboto, sans-serif; font-size: 12px; font-weight: 200;" fill="rgb(255, 255, 255)" stroke="none" stroke-width="1px">340</text></g><line x1="40" y1="0" x2="40" y2="377" fill="rgb(0, 0, 0)" stroke="rgb(204, 204, 204)" stroke-width="1px"></line></g></g><g transform="translate(40, 0)" clip-path="url(#clip_0)"><clipPath id="clip_0"><rect width="1701" height="377"></rect></clipPath><g><g><g><line x1="0" y1="0" x2="0" y2="377" fill="rgb(0, 0, 0)" stroke="rgb(189, 189, 189)" stroke-width="1px" opacity="0.25"></line><line x1="141.80583333333334" y1="0" x2="141.80583333333334" y2="377" fill="rgb(0, 0, 0)" stroke="rgb(189, 189, 189)" stroke-width="1px" opacity="0.25"></line><line x1="283.6116666666667" y1="0" x2="283.6116666666667" y2="377" fill="rgb(0, 0, 0)" stroke="rgb(189, 189, 189)" stroke-width="1px" opacity="0.25"></line><line x1="425.4175" y1="0" x2="425.4175" y2="377" fill="rgb(0, 0, 0)" stroke="rgb(189, 189, 189)" stroke-width="1px" opacity="0.25"></line><line x1="567.2233333333334" y1="0" x2="567.2233333333334" y2="377" fill="rgb(0, 0, 0)" stroke="rgb(189, 189, 189)" stroke-width="1px" opacity="0.25"></line><line x1="709.0291666666667" y1="0" x2="709.0291666666667" y2="377" fill="rgb(0, 0, 0)" stroke="rgb(189, 189, 189)" stroke-width="1px" opacity="0.25"></line><line x1="850.835" y1="0" x2="850.835" y2="377" fill="rgb(0, 0, 0)" stroke="rgb(189, 189, 189)" stroke-width="1px" opacity="0.25"></line><line x1="992.6408333333335" y1="0" x2="992.6408333333335" y2="377" fill="rgb(0, 0, 0)" stroke="rgb(189, 189, 189)" stroke-width="1px" opacity="0.25"></line><line x1="1134.4466666666667" y1="0" x2="1134.4466666666667" y2="377" fill="rgb(0, 0, 0)" stroke="rgb(189, 189, 189)" stroke-width="1px" opacity="0.25"></line><line x1="1276.2525" y1="0" x2="1276.2525" y2="377" fill="rgb(0, 0, 0)" stroke="rgb(189, 189, 189)" stroke-width="1px" opacity="0.25"></line><line x1="1418.0583333333334" y1="0" x2="1418.0583333333334" y2="377" fill="rgb(0, 0, 0)" stroke="rgb(189, 189, 189)" stroke-width="1px" opacity="0.25"></line><line x1="1559.8641666666667" y1="0" x2="1559.8641666666667" y2="377" fill="rgb(0, 0, 0)" stroke="rgb(189, 189, 189)" stroke-width="1px" opacity="0.25"></line><line x1="1701.67" y1="0" x2="1701.67" y2="377" fill="rgb(0, 0, 0)" stroke="rgb(189, 189, 189)" stroke-width="1px" opacity="0.25"></line></g><g><line x1="0" y1="377" x2="1701.67" y2="377" fill="rgb(0, 0, 0)" stroke="rgb(189, 189, 189)" stroke-width="1px" opacity="0.25"></line><line x1="0" y1="348" x2="1701.67" y2="348" fill="rgb(0, 0, 0)" stroke="rgb(189, 189, 189)" stroke-width="1px" opacity="0.25"></line><line x1="0" y1="319" x2="1701.67" y2="319" fill="rgb(0, 0, 0)" stroke="rgb(189, 189, 189)" stroke-width="1px" opacity="0.25"></line><line x1="0" y1="290" x2="1701.67" y2="290" fill="rgb(0, 0, 0)" stroke="rgb(189, 189, 189)" stroke-width="1px" opacity="0.25"></line><line x1="0" y1="261" x2="1701.67" y2="261" fill="rgb(0, 0, 0)" stroke="rgb(189, 189, 189)" stroke-width="1px" opacity="0.25"></line><line x1="0" y1="232" x2="1701.67" y2="232" fill="rgb(0, 0, 0)" stroke="rgb(189, 189, 189)" stroke-width="1px" opacity="0.25"></line><line x1="0" y1="203" x2="1701.67" y2="203" fill="rgb(0, 0, 0)" stroke="rgb(189, 189, 189)" stroke-width="1px" opacity="0.25"></line><line x1="0" y1="174" x2="1701.67" y2="174" fill="rgb(0, 0, 0)" stroke="rgb(189, 189, 189)" stroke-width="1px" opacity="0.25"></line><line x1="0" y1="145" x2="1701.67" y2="145" fill="rgb(0, 0, 0)" stroke="rgb(189, 189, 189)" stroke-width="1px" opacity="0.25"></line><line x1="0" y1="116" x2="1701.67" y2="116" fill="rgb(0, 0, 0)" stroke="rgb(189, 189, 189)" stroke-width="1px" opacity="0.25"></line><line x1="0" y1="86.99999999999999" x2="1701.67" y2="86.99999999999999" fill="rgb(0, 0, 0)" stroke="rgb(189, 189, 189)" stroke-width="1px" opacity="0.25"></line><line x1="0" y1="58" x2="1701.67" y2="58" fill="rgb(0, 0, 0)" stroke="rgb(189, 189, 189)" stroke-width="1px" opacity="0.25"></line><line x1="0" y1="28.999999999999982" x2="1701.67" y2="28.999999999999982" fill="rgb(0, 0, 0)" stroke="rgb(189, 189, 189)" stroke-width="1px" opacity="0.25"></line><line x1="0" y1="0" x2="1701.67" y2="0" fill="rgb(0, 0, 0)" stroke="rgb(189, 189, 189)" stroke-width="1px" opacity="0.25"></line></g></g></g><g><g><line x1="0" y1="493" x2="1701.67" y2="493" fill="rgb(0, 0, 0)" stroke="rgb(153, 153, 153)" stroke-width="1.5px"></line></g></g><g><g><line x1="141.80583333333334" y1="0" x2="141.80583333333334" y2="377" fill="rgb(0, 0, 0)" stroke="rgb(153, 153, 153)" stroke-width="1.5px"></line></g></g><g><g><g><g><g><path stroke="rgb(255, 112, 67)" stroke-width="2px" d="M148.89612499999998,418.73099822998046L149.6051541666667,142.88299026489258L151.73224166666668,280.9375L152.44127083333333,449.1084993362427L160.24059166666666,536.3404991149902L160.94962083333334,333.3259960174561L165.20379583333332,475.1504993915558L170.16700000000003,403.23050022125244L175.1302041666667,158.23850708007814L175.83923333333334,331.28150177001953L176.5482625,415.6860004425049L177.96632083333336,331.04949645996095L178.67535,324.9449977874756L180.09340833333334,393.84900398254393L184.34758333333335,446.7884987831116L185.0566125,98.61451416015623L185.76564166666665,331.73099822998046L186.47467083333336,296.59750442504884L187.89272916666667,327.51150398254396L188.60175833333335,466.1604996681213L190.01981666666666,483.24149997234343L191.43787500000002,120.61098937988281L192.14690416666667,317.4195053100586L196.40107916666668,449.5290006637573L200.65525416666668,467.1755007743836L202.0733125,285.31650619506837L204.90942916666668,486.43149969577786L212.70875,481.9800001382828L214.83583750000003,356.93200531005857L216.962925,261.31900177001955L217.6719541666667,502.78749999999997L224.05321666666666,457.8520003318786L227.59836250000004,363.8774955749512L230.43447916666665,462.6659998893738L231.14350833333336,459.1715001106262L232.56156666666666,144.4489929199219L233.97962500000003,472.9754993915558L234.68865416666665,510.53050022125245L235.39768333333336,289.7100044250488L238.23380000000003,452.58849878311156L238.94282916666666,446.06350154876714L243.19700416666666,287.12900619506837L243.90603333333337,405.72450199127195L245.32409166666667,415.6714973449707L246.03312083333336,279.41499557495115L248.16020833333337,343.2585048675537L253.1234125,355.52550354003904L254.54147083333336,272.9915061950684L255.2505,321.9434982299805L256.66855833333335,300.4255035400391L258.0866166666667,369.3875L259.504675,309.12550354003906L262.3407916666667,368.8945053100586L263.04982083333334,266.8144920349121L263.75885,322.3929946899414L265.8859375,312.64900398254395L266.5949666666667,297.4095008850098L267.3039958333333,234.33450088500976L268.013025,269.5114929199219L269.43108333333333,261.7829902648926L270.14011250000004,268.72850265502933L272.2672,302.9195053100586L272.9762291666667,250.6035026550293L273.6852583333333,252.63349380493165L275.8123458333333,273.5714973449707L276.52137500000003,262.68200531005857L277.23040416666663,305.06549911499025L277.93943333333334,272.68699645996094L280.06652083333336,272.8609893798828L282.9026375,260.97099380493165L283.6116666666667,287.37550354003906L285.02972500000004,281.32900619506836L285.73875416666664,280.21250000000003L286.44778333333335,239.82999114990236L287.15681250000006,302.2380035400391L288.57487083333336,295.1910026550293L289.99292916666667,240.48250885009767L291.41098750000003,277.09500885009766L292.82904583333334,242.03399734497071L294.24710416666665,247.63099822998046L294.95613333333336,219.9214973449707L296.37419166666666,243.96249999999998L297.08322083333337,240.62749557495118L297.79224999999997,269.8885070800781L298.5012791666667,243.77399291992188L299.2103083333334,248.16749114990236L300.6283666666667,257.20100708007817L301.33739583333335,280.3140106201172L304.1735125,259.9415061950683L308.4276875,236.87200088500975L309.84574583333335,268.03250885009766L310.554775,258.6945053100586L311.2638041666667,240.19249114990234L312.6818625,280.02399291992185L313.3908916666667,258.5785026550293L314.80895,242.41098937988284L315.5179791666667,259.1875L316.22700833333334,249.7334938049316L316.9360375,246.03598937988284L320.4811833333333,239.96050796508788L321.19021250000003,226.35950088500977L321.8992416666667,151.6410026550293L324.0263291666667,260.1734893798828L324.73535833333335,209.71350708007816L325.4443875,219.61700973510742L326.1534166666667,270.74400177001957L327.571475,136.5320053100586L333.24370833333336,248.77651062011716L333.9527375,241.13500442504883L336.079825,239.5980079650879L336.7888541666667,265.5964973449707L337.49788333333333,228.2445053100586L338.91594166666664,169.8529991149902L340.33400000000006,263.175L341.75205833333337,234.6825088500977L342.4610875,219.28349380493165L343.8791458333334,230.28901062011718L345.2972041666667,262.50799026489256L346.00623333333334,260.44899291992186L347.42429166666665,258.63649291992186L350.96943749999997,288.8980079650879L351.6784666666667,268.4385070800781L352.3874958333334,246.34049911499022L353.096525,219.6315017700195L357.3507,270.54100265502933L358.7687583333334,247.23949203491208L360.1868166666667,277.0660026550293L360.8958458333334,256.6790061950683L363.02293333333336,242.54150619506837L363.7319625,232.08699645996094L365.85905,246.39848937988282L367.27710833333333,269.30849380493163L367.9861375,238.4670097351074L370.113225,229.78150177001956L371.5312833333333,246.80450973510744L375.0764291666667,262.40650177001953L375.78545833333334,247.74700088500975L376.49448750000005,254.14150619506836L377.2035166666667,234.63901062011718L380.7486625,252.03901062011715L381.4576916666667,248.87799911499022L382.87575000000004,264.1609893798828L385.00283750000006,237.23450088500977L385.71186666666665,274.26749114990236L386.42089583333336,269.6420097351074L387.129925,247.95L388.5479833333333,251.4154991149902L389.9660416666667,231.15899734497071L391.38410000000005,238.62651062011722L392.09312916666664,249.37099380493163L392.80215833333335,249.12449645996097L395.638275,270.84549026489253L397.0563333333334,237.4375L398.4743916666667,235.90050354003907L399.18342083333334,261.24649734497075L399.89245,242.42550354003905L400.60147916666665,260.76799468994136L401.31050833333336,265.20499114990236L402.0195375,206.14649734497067L402.72856666666667,265.1470008850098L406.9827416666667,265.01650619506836L409.1098291666667,161.99400177001954L409.81885833333337,249.77699203491207L414.7820625,266.8579902648926L415.4910916666667,214.77399291992185L418.3272083333333,254.95350265502927L419.0362375,240.5114929199219L419.7452666666667,172.95599822998048L420.45429583333333,252.5320053100586L421.163325,276.74700088500975L421.8723541666667,267.9165061950684L422.58138333333335,131.32651062011718L423.2904125,118.92898406982421L423.9994416666667,151.68450088500978L424.7084708333333,225.38800354003908L426.1265291666667,219.71849822998047L426.8355583333334,229.60750885009767L428.25361666666663,135.18349380493166L431.0897333333334,244.6295097351074L431.79876249999995,263.08800354003904L433.92585,105.99500885009763L434.63487916666674,240.8885070800781L435.3439083333334,145.08699645996094L436.0529375,238.87300796508785L438.18002500000006,248.73299026489258L440.30711249999996,230.59349822998047L441.01614166666667,248.99400177001954L443.14322916666674,212.39599380493166L443.8522583333333,238.7570053100586L446.68837500000006,163.93699645996094L447.3974041666667,176.2910026550293L449.5244916666667,205.29100265502927L450.2335208333334,119.07399291992189L450.94255000000004,261.7975044250488L451.65157916666675,262.3339973449707L452.3606083333333,229.79599380493164L453.0696375,239.88800354003905L453.77866666666665,240.2359893798828L454.48769583333336,229.52049026489257L455.9057541666667,222.7489929199219L456.6147833333333,206.05950088500975L457.3238125,234.24750442504882L458.0328416666667,239.25L460.8689583333333,80.04001770019534L461.5779875,79.28598937988279L462.2870166666667,221.87900619506837L462.99604583333337,264.0595008850098L463.7050750000001,245.31098937988284L465.1231333333333,93.43800354003908L466.5411916666667,235.0304946899414L467.95925000000005,138.51849822998048L468.66827916666665,82.80947875976561L470.7953666666667,89.4359893798828L471.5043958333334,215.49899291992188L472.2134250000001,52.127517700195305L473.63148333333334,209.7714973449707L475.0495416666667,237.0170097351074L477.8856583333333,80.35901947021486L478.5946875,213.54150619506834L480.721775,218.42799911499026L481.43080416666663,54.375000000000014L482.13983333333334,83.99848937988281L482.84886250000005,250.92250442504883L483.5578916666667,71.2094787597656L484.2669208333334,68.93301239013672L484.97594999999995,33.32101593017579L486.3940083333333,57.26048583984376L487.1030375,75.08099822998045L487.81206666666674,54.20100708007812L488.5210958333334,70.99198760986329L489.93915416666664,50.257005310058595L492.0662416666667,231.3475044250488L494.9023583333333,101.32600708007811L497.0294458333333,68.81698760986329L497.738475,70.83250885009764L498.44750416666665,89.95801239013673L500.5745916666667,73.83401947021484L501.99264999999997,92.9304946899414L502.7016791666667,218.2394920349121L503.4107083333334,222.99549026489257L504.11973750000004,119.58150177001953L504.82876666666675,229.46250000000003L505.5377958333333,229.07099380493165L506.246825,224.4019920349121L508.3739125000001,33.089010620117186L509.0829416666667,245.51401062011718L509.7919708333333,86.3039840698242L510.501,126.20799026489256L512.6280875000001,221.54549026489255L517.5912916666666,230.72399291992187L519.7183791666668,56.52101593017579L520.4274083333333,96.10599822998046L521.8454666666667,210.53999557495118L522.5544958333334,209.3945053100586L523.263525,97.6140106201172L523.9725541666667,75.74798583984374L524.6815833333334,66.9900177001953L526.0996416666667,39.58498229980471L526.8086708333333,74.64601593017576L527.5177,66.7724822998047L528.9357583333334,71.70251770019532L529.6447875000001,81.67848052978515L531.771875,61.75549468994142L533.1899333333334,103.95050354003908L534.6079916666666,53.20050354003905L535.3170208333333,73.39899291992188L536.02605,80.88099822998046L540.2802250000001,66.65650177001955L540.9892541666667,109.3445053100586L541.6982833333334,91.32101593017579L544.5344,70.00599822998046L546.6614875,122.20599822998045L548.0795458333333,66.51149291992186L550.2066333333333,63.26350708007813L553.0427500000001,62.23401947021485L555.8788666666667,116.33351593017579L556.5878958333334,86.63749999999999L557.2969250000001,77.16900177001952L558.7149833333333,104.18250885009765L560.1330416666667,103.58800354003908L560.8420708333334,88.97197875976562L561.5511,83.11401062011717L562.9691583333333,69.9044876098633L564.3872166666666,84.98447875976564L565.0962458333333,34.03150177001954L565.805275,239.2355079650879L566.5143041666668,97.46900177001953L567.9323625,96.83099822998045L568.6413916666667,192.83550796508788L569.3504208333334,111.95448760986326L570.7684791666667,239.00350265502928L572.8955666666667,74.9650177001953L574.3136250000001,88.68200531005859L576.4407125,103.19651947021482L577.1497416666667,29.69601593017576L578.5678,228.7375L579.9858583333333,93.95998229980468L581.4039166666668,158.61549911499026L582.8219750000001,109.98250885009767L583.5310041666667,83.80998229980467L585.6580916666667,236.2774955749512L587.07615,81.25801239013671L587.7851791666667,125.17850265502928L590.6212958333334,121.4664840698242L592.0393541666666,101.45650177001951L593.4574125,214.09249114990234L595.5844999999999,109.8955123901367L596.2935291666666,69.20851593017579L597.0025583333334,79.56149291992186L597.7115875000001,70.1655212402344L598.4206166666668,111.59198760986327L599.1296458333334,63.04601593017577L601.9657625000001,68.39651947021483L603.3838208333333,64.55398406982424L604.09285,79.95302124023436L604.8018791666667,84.34651947021484L605.5109083333334,75.70448760986326L606.2199375,108.2570053100586L608.347025,73.10901947021485L609.0560541666666,47.197482299804676L609.7650833333333,64.9599822998047L614.7282875000001,63.61149291992188L616.855375,92.97399291992186L620.4005208333333,103.47197875976562L621.10955,47.74848937988282L621.8185791666667,53.9400177001953L623.9456666666666,86.47802124023438L625.363725,35.23498229980468L626.0727541666668,59.05851593017579L626.7817833333334,58.81199645996093L628.9088708333334,76.96598052978516L632.4540166666667,83.66501770019532L633.872075,97.83150177001953L634.5811041666667,77.31401062011719L635.2901333333334,77.61849822998047L635.9991625000001,72.90599822998045L637.4172208333333,56.59349822998047L639.5443083333334,52.809019470214835L640.2533374999999,79.44551239013673L641.6713958333333,70.62948760986329L644.5075125,46.48699645996093L645.2165416666667,65.98951416015626L646.6346000000001,130.52900619506838L648.7616875,55.27399291992187L650.1797458333333,53.9835159301758L651.5978041666667,53.22948760986327L652.3068333333334,95.09098052978514L653.0158625,72.42751770019531L654.4339208333333,61.14651947021485L655.8519791666668,94.51098937988283L656.5610083333333,76.12499999999999L657.2700375,66.74349822998047L657.9790666666667,32.247985839843764L658.6880958333334,54.21552124023437L660.1061541666668,68.54148406982422L660.8151833333333,28.81149291992188L661.5242125,96.8890106201172L665.0693583333333,47.58901062011717L665.7783875,99.39748229980471L666.4874166666667,49.56098937988281L667.905475,92.95947875976562L668.6145041666667,46.82051239013671L669.3235333333333,46.6030212402344L670.0325625,79.8804946899414L674.9957666666667,65.48200531005858L677.1228541666667,65.9460159301758L677.8318833333333,51.1414840698242L679.2499416666667,49.691484069824206L682.7950875,51.5039840698242L683.5041166666667,87.14500885009767L684.2131458333334,24.940017700195316L686.3402333333333,57.985485839843754L687.0492625,41.80348052978516L689.1763500000001,34.35050354003908L689.8853791666667,63.52449645996095L691.3034375,52.43200531005859L692.0124666666667,70.04949645996093L693.430525,50.17000885009767L694.1395541666667,64.16249999999998L694.8485833333333,38.091484069824205L695.5576125,50.344001770019524L696.2666416666667,58.768498229980466L700.5208166666667,38.67151947021485L701.2298458333335,60.78401947021485L702.6479041666666,57.420008850097645L704.0659625000001,72.45650177001953L705.4840208333334,60.4070053100586L706.19305,20.37248229980469L708.3201375000001,54.14299468994141L709.0291666666667,17.61749114990234L711.8652833333334,110.0984893798828L712.5743125,24.75151062011717L713.2833416666667,66.70000000000002L713.9923708333333,20.705998229980473L716.1194583333333,44.65998229980469L718.2465458333334,84.81048583984375L721.7916916666668,52.315980529785165L722.5007208333333,48.29949645996092L723.9187791666667,65.23548583984373L724.6278083333334,52.403021240234374L725.3368375000001,58.60901947021486L726.7548958333333,46.42898406982422L727.463925,30.69651947021483L728.1729541666667,73.92101593017577L728.8819833333334,60.29098052978514L731.7181,65.39500885009765L732.4271291666668,57.60851593017579L733.8451875000001,58.449496459960926L734.5542166666667,49.93800354003906L735.2632458333334,65.01799468994142L736.6813041666667,71.35448760986328L737.3903333333334,57.05750885009765L739.5174208333333,75.79148406982424L740.9354791666667,55.62197875976562L744.480625,60.740521240234386L745.1896541666667,78.87999114990234L747.3167416666666,65.25000000000001L749.4438291666668,75.08099822998045L751.5709166666667,34.858012390136714L752.9889750000001,36.67051239013671L755.1160625,50.95302124023438L755.8250916666667,80.18498229980469L758.6612083333334,37.77248229980467L759.3702375,39.295008850097666L766.4605291666668,54.22999114990233L767.8785875,59.07298583984375L768.5876166666667,57.275000000000006L769.2966458333334,75.6609893798828L770.0056750000001,44.44249114990233L771.4237333333333,40.12151947021484L772.8417916666667,38.57000885009767L774.25985,44.109019470214825L776.3869375,46.66098937988283L777.8049958333334,25.157508850097674L778.5140250000001,69.46950531005861L780.6411125,103.63150177001954L781.3501416666667,51.199496459960955L782.7682000000001,74.64601593017576L784.1862583333333,55.94098052978515L784.8952875,32.10302124023436L785.6043166666667,49.47399291992189L787.0223750000001,48.76350708007814L787.7314041666666,70.07848052978514L789.8584916666667,27.88351593017577L792.6946083333333,31.1460159301758L793.4036375000001,58.92802124023439L794.8216958333334,42.42701416015626L796.2397541666667,72.54349822998046L799.0758708333334,41.90499114990234L799.7849,41.80348052978516L800.4939291666667,66.85947875976562L801.2029583333333,27.23099822998045L801.9119875,34.205494689941396L802.6210166666667,48.64748229980467L803.3300458333334,42.10801239013673L804.7481041666666,47.081501770019536L807.5842208333335,54.56350708007812L809.0022791666667,52.4900177001953L809.7113083333334,43.8044876098633L811.8383958333334,65.19198760986326L814.6745125000001,60.84198760986328L816.8016,81.6929946899414L818.2196583333334,47.54551239013671L818.9286875,64.72802124023437L819.6377166666667,46.139010620117176L822.4738333333333,60.71149291992189L823.8918916666668,31.871015930175798L824.6009208333334,57.73901062011718L825.30995,93.30750885009765L826.0189791666667,30.08750000000002L827.4370375000001,25.02701416015624L828.1460666666668,38.80201416015623L830.2731541666667,60.508515930175776L833.8183,34.53901062011718L835.2363583333334,33.2919876098633L835.9453875,54.099496459960946L837.3634458333333,48.197985839843746L838.072475,68.01950531005858L840.9085916666667,57.97101593017579L842.32665,43.13750000000002L843.0356791666667,27.08598937988281L843.7447083333334,74.48649291992189L845.1627666666667,50.64848937988281L846.580825,53.17151947021483L847.2898541666667,45.965017700195325L847.9988833333334,42.89098052978516L849.4169416666666,60.972482299804675L850.1259708333333,58.23200531005861L851.5440291666666,32.929487609863294L852.2530583333335,42.528480529785156L852.9620874999999,30.957508850097653L853.6711166666668,69.26648406982422L854.3801458333334,52.11300354003905L855.089175,32.55251770019533L858.6343208333335,33.35000000000001L860.0523791666666,37.48250885009767L861.4704375,52.127517700195305L862.1794666666668,51.663507080078126L862.8884958333333,60.21849822998046L866.4336416666666,30.044001770019513L869.2697583333335,45.84899291992186L870.6878166666668,50.634019470214845L871.3968458333334,49.488507080078136L875.6510208333333,82.25851593017579L876.3600500000001,36.23548583984375L877.0690791666666,36.771978759765645L877.7781083333334,33.1179946899414L878.4871375,46.99450531005861L881.3232541666667,74.12399291992189L882.7413125000002,61.78447875976564L883.4503416666666,49.41598052978517L887.7045166666666,74.10947875976564L888.4135458333334,61.55251770019531L890.5406333333333,42.3400177001953L891.9586916666667,52.88150177001952L892.6677208333333,75.31300354003906L893.3767500000001,44.732508850097645L894.7948083333334,58.13049468994139L896.9218958333335,67.49748229980469L897.6309249999999,68.72999114990233L898.3399541666668,82.83850708007814L899.7580125000002,52.692994689941415L900.4670416666668,70.06401062011717L901.1760708333333,71.94899291992189L901.8851000000001,63.52449645996095L902.5941291666667,47.76300354003907L903.3031583333335,71.28200531005861L905.4302458333334,76.99500885009766L906.139275,62.5820053100586L907.5573333333333,75.48699645996095L908.2663624999999,37.975503540039064L908.9753916666667,113.37550354003905L911.1024791666666,83.375L911.8115083333334,86.99999999999999L912.5205375,53.20050354003905L915.3566541666668,86.26048583984374L916.0656833333334,72.12298583984375L916.7747125,135.90849380493165L920.3198583333335,87.52197875976563L921.7379166666666,112.31698760986326L923.155975,60.102517700195314L923.8650041666668,79.53250885009766L924.5740333333334,112.37500000000001L926.7011208333333,84.89748229980466L927.4101500000002,71.31098937988283L928.1191791666666,82.31648406982421L928.8282083333332,19.009478759765624L929.5372375000001,50.285989379882814L930.2462666666667,58.391484069824216L930.9552958333335,66.3085159301758L931.664325,63.93049468994141L933.0823833333334,73.47151947021484L935.2094708333333,52.76552124023437L936.6275291666667,63.379487609863276L937.3365583333333,78.27101593017579L939.4636458333334,95.90302124023438L940.172675,43.57248229980469L941.5907333333334,65.7140106201172L942.2997624999999,49.70599822998045L943.0087916666668,52.2724822998047L943.7178208333333,70.86149291992186L944.4268500000002,87.81199645996095L945.8449083333333,44.47151947021482L946.5539375000001,86.52151947021484L947.2629666666667,62.55302124023438L949.3900541666666,70.26698760986329L951.5171416666668,114.6804946899414L953.6442291666667,76.96598052978516L954.3532583333333,72.97848052978517L955.7713166666666,85.37600708007814L956.4803458333334,83.63598937988282L957.189375,74.47197875976563L957.8984041666666,76.21199645996094L958.6074333333335,95.04748229980467L959.3164625,51.51849822998045L960.7345208333334,79.025L964.2796666666667,89.40700531005858L965.6977250000001,55.05650177001955L967.1157833333334,61.05947875976564L968.5338416666668,66.91749114990233L969.2428708333333,82.17151947021486L973.4970458333335,74.06598052978518L974.206075,75.25499114990234L975.6241333333335,93.98901062011717L976.3331625,80.6054946899414L977.0421916666668,71.74601593017579L979.8783083333333,47.55998229980468L981.2963666666667,71.05L982.7144250000001,64.61199645996095L984.1324833333334,44.761492919921864L984.8415125,46.965521240234395L985.5505416666668,77.1109893798828L987.6776291666667,69.45499114990233L988.3866583333333,114.28901062011718L989.0956875000002,54.375000000000014L990.5137458333332,70.17999114990236L991.2227750000001,74.67499999999998L993.3498625,96.64249114990236L994.0588916666666,92.08951416015626L996.1859791666668,79.90947875976562L996.8950083333333,69.9625L997.6040375000001,70.23800354003907L999.0220958333333,88.5515106201172L1001.8582125,42.22399291992187L1002.5672416666666,69.67248229980468L1003.2762708333335,83.0125L1004.6943291666668,54.12848052978516L1005.4033583333334,54.375000000000014L1008.9485041666667,95.22151947021486L1010.3665625000001,44.54400177001955L1012.49365,73.16698760986328L1013.2026791666668,78.30000000000001L1015.3297666666667,80.99697875976561L1016.0387958333333,93.20599822998047L1019.5839416666666,46.400000000000006L1021.002,63.8289840698242L1021.7110291666668,52.838003540039054L1022.4200583333334,53.79500885009766L1023.1290875,59.87051239013671L1023.8381166666668,88.9140106201172L1024.5471458333334,71.18049468994138L1025.2561750000002,110.80901947021484L1027.3832625,78.9960159301758L1028.0922916666666,80.46048583984376L1028.8013208333334,61.46552124023438L1029.51035,80.96799468994139L1030.9284083333334,53.14249114990234L1032.3464666666669,65.29349822998049L1033.0554958333332,92.48099822998047L1035.1825833333332,74.44299468994141L1035.8916125,45.89249114990233L1038.0187,59.01501770019532L1040.1457874999999,87.71048583984373L1042.9819041666667,47.54551239013671L1046.52705,35.72802124023439L1047.2360791666665,89.01552124023436L1047.9451083333333,74.9650177001953L1050.7812250000002,95.40998229980468L1052.9083125000002,77.63301239013673L1056.4534583333334,76.27000885009767L1058.5805458333334,72.28250885009767L1060.7076333333332,58.62348937988283L1062.1256916666666,126.23699645996093L1062.8347208333334,61.885989379882815L1064.9618083333335,90.74098052978516L1067.7979249999999,70.28150177001953L1070.6340416666667,79.6919876098633L1073.4701583333335,39.874999999999986L1074.1791875,53.49052124023437L1077.7243333333333,66.4099822998047L1079.1423916666668,32.40750885009765L1079.8514208333336,77.61849822998047L1081.2694791666665,63.626007080078125L1081.9785083333334,83.15750885009764L1083.3965666666668,64.37999114990234L1088.3597708333332,38.77298583984374L1094.7410333333332,53.11350708007812L1095.4500625,57.071978759765614L1096.8681208333333,62.23401947021485L1097.57715,63.13301239013674L1099.7042375,62.451510620117205L1100.4132666666667,60.14601593017578L1101.8313249999999,72.64500885009767L1104.6674416666667,69.28099822998047L1106.0855000000001,49.03901062011717L1108.9216166666665,36.916987609863284L1109.6306458333333,70.02051239013672L1110.339675,57.20251770019533L1111.0487041666668,70.07848052978514L1111.7577333333334,59.72550354003907L1114.5938500000002,72.81900177001953L1115.3028791666666,73.6890106201172L1116.7209375,63.002517700195305L1117.4299666666666,70.45549468994139L1120.2660833333334,54.88250885009765L1123.8112291666666,61.87151947021485L1124.5202583333335,41.789010620117196L1127.356375,50.12651062011721L1129.4834624999999,55.27399291992187L1131.61055,40.875503540039055L1132.3195791666667,34.19098052978515L1133.7376375000001,34.24899291992186L1134.4466666666667,32.364010620117185L1136.5737541666667,37.65650177001953L1137.9918125,35.11900177001954L1143.6640458333334,42.3400177001953L1145.7911333333334,69.65801239013672L1146.5001625,64.20599822998048L1147.9182208333334,49.44500885009767L1149.3362791666666,64.32197875976563L1150.0453083333332,42.73150177001955L1156.4265708333332,58.89899291992185L1157.1356,66.01849822998048L1159.9717166666667,68.13548583984377L1161.389775,51.41698760986327L1162.0988041666667,50.778984069824205L1162.8078333333335,72.70302124023439L1163.5168625,69.99148406982422L1165.6439500000001,56.810989379882834L1167.0620083333333,50.24249114990235L1167.7710375000001,57.72449645996093L1168.4800666666667,62.78498229980471L1169.1890958333336,75.87848052978516L1169.8981250000002,47.704991149902355L1170.6071541666665,83.80998229980467L1171.3161833333334,51.92449645996095L1172.7342416666668,98.59999999999998L1173.4432708333334,74.71849822998045L1174.1523,54.60700531005858L1174.8613291666668,61.07399291992189L1175.5703583333334,45.37051239013672L1176.2793875000002,46.5885070800781L1176.9884166666666,52.70750885009766L1177.6974458333334,63.509982299804705L1179.1155041666666,65.40947875976562L1184.0787083333332,63.32151947021484L1186.2057958333335,79.67751770019532L1186.914825,38.91799468994142L1188.3328833333335,27.11501770019531L1189.0419125,52.67848052978516L1191.8780291666667,65.3515106201172L1192.5870583333333,20.473992919921866L1193.2960875,55.82500000000001L1196.1322041666667,55.47701416015626L1196.8412333333335,57.43447875976561L1197.5502625,42.441484069824234L1198.2592916666667,50.41648406982421L1198.9683208333333,20.37248229980469L1200.3863791666668,60.261996459960926L1201.0954083333334,38.22197875976564L1203.9315250000002,38.511996459960955L1204.6405541666666,39.83150177001952L1205.3495833333334,83.96950531005861L1206.7676416666666,29.73951416015627L1208.8947291666668,36.264514160156246L1211.7308458333332,51.08351593017577L1212.439875,31.20398406982423L1213.1489041666666,52.519001770019514L1214.5669625,49.12600708007814L1215.9850208333335,68.39651947021483L1216.69405,44.21048583984376L1221.6572541666667,51.73598937988281L1223.7843416666667,43.8044876098633L1225.2024,42.39798583984377L1229.4565750000002,51.460485839843734L1231.5836625000002,58.043498229980464L1232.2926916666665,61.98749999999999L1234.4197791666668,48.86501770019532L1237.2558958333334,45.588003540039075L1238.6739541666666,44.80499114990233L1239.3829833333334,73.97898406982421L1241.5100708333334,48.140017700195315L1242.2191,47.55998229980468L1242.9281291666668,75.64651947021484L1244.3461875,52.17101593017577L1245.7642458333332,69.19400177001954L1249.3093916666667,55.53498229980469L1250.72745,59.37751770019532L1251.436479166667,72.81900177001953L1252.1455083333335,22.315521240234357L1253.5635666666667,64.35100708007812L1254.9816250000001,63.33598937988281L1255.6906541666667,68.5125L1256.3996833333333,37.68548583984374L1257.1087125000001,82.78049468994139L1259.2358,48.690980529785136L1260.6538583333333,57.69551239013671L1261.3628875,53.43250885009766L1262.0719166666668,70.45549468994139L1262.7809458333334,46.80599822998047L1263.4899750000002,49.54651947021485L1265.6170625000002,37.51149291992189L1269.1622083333334,79.01048583984377L1272.7073541666668,35.423489379882824L1273.4163833333332,60.32000885009768L1274.1254125,52.88150177001952L1276.9615291666667,37.87399291992189L1277.6705583333335,50.344001770019524L1278.3795875,59.478984069824214L1283.3427916666667,25.83901062011717L1284.0518208333335,53.70801239013673L1285.4698791666667,47.951510620117176L1286.1789083333335,44.1960159301758L1287.5969666666667,28.854991149902343L1290.4330833333333,24.577517700195315L1291.8511416666668,43.73200531005858L1293.2692000000002,68.94748229980469L1294.6872583333334,41.615017700195295L1295.3962875,52.315980529785165L1298.2324041666668,81.17101593017578L1301.0685208333332,31.566484069824227L1301.77755,52.28699645996095L1302.4865791666666,42.42701416015626L1303.1956083333334,57.62298583984376L1304.6136666666669,74.93598937988281L1305.3226958333335,35.713507080078145L1308.8678416666667,66.33750000000002L1309.5768708333333,57.071978759765614L1310.9949291666667,73.8484893798828L1312.4129875,49.54651947021485L1313.1220166666667,55.20151062011719L1313.8310458333335,49.12600708007814L1314.540075,56.651510620117186L1315.9581333333333,50.822482299804705L1317.3761916666667,47.96598052978514L1320.2123083333336,77.5460159301758L1321.6303666666665,45.240017700195324L1323.048425,57.390980529785146L1325.1755125000002,35.147985839843756L1325.8845416666668,46.53049468994139L1328.7206583333334,35.78598937988282L1330.8477458333334,61.20448760986328L1332.2658041666668,68.62848052978515L1332.9748333333334,54.302517700195295L1333.6838625,45.21098937988283L1334.3928916666669,40.788507080078126L1336.5199791666666,23.77999114990236L1337.2290083333335,69.07802124023436L1337.9380375,48.77802124023439L1338.6470666666667,37.439010620117166L1339.3560958333335,63.26350708007813L1340.065125,65.01799468994142L1342.1922124999999,65.88800354003905L1342.9012416666667,64.20599822998048L1343.6102708333333,36.98951416015624L1345.0283291666667,59.92848052978514L1345.7373583333335,48.32848052978514L1346.4463875000001,50.83699645996096L1347.1554166666667,75.84949645996095L1348.573475,83.80998229980467L1349.9915333333333,57.56501770019533L1352.1186208333334,62.944505310058595L1353.5366791666668,94.16300354003907L1354.2457083333334,73.80499114990235L1354.9547375000002,45.21098937988283L1355.6637666666666,72.93498229980467L1359.9179416666668,51.37348937988281L1360.6269708333334,79.93850708007811L1362.7540583333332,57.46350708007811L1363.4630875,78.72051239013672L1364.1721166666666,69.03447875976562L1364.8811458333334,38.091484069824205L1368.4262916666669,59.14551239013671L1374.098525,63.93049468994141L1374.8075541666667,55.56401062011719L1375.5165833333335,56.869001770019544L1377.6436708333333,35.292994689941395L1379.0617291666667,56.28901062011718L1381.1888166666668,46.82051239013671L1381.8978458333336,49.92348937988282L1382.606875,70.83250885009764L1383.3159041666665,57.18800354003908L1384.7339625,30.667491149902336L1385.4429916666668,66.16350708007812L1387.5700791666668,72.13749999999999L1391.115225,71.49949645996092L1391.8242541666666,68.77348937988283L1393.2423125,54.302517700195295L1393.9513416666668,50.923992919921886L1395.3694,44.42802124023436L1400.3326041666667,88.30499114990234L1401.0416333333335,72.67399291992189L1401.7506625,50.18447875976564L1403.8777499999999,40.02000885009767L1404.5867791666667,63.654991149902344L1406.7138666666667,75.25499114990234L1407.4228958333333,58.75398406982421L1408.1319250000001,37.36648406982421L1408.8409541666667,58.87000885009764L1410.2590125,55.02751770019529L1410.9680416666667,39.2080123901367L1412.3861,48.633012390136706L1413.8041583333334,88.95750885009765L1415.2222166666668,49.41598052978517L1415.9312458333334,40.092491149902344L1418.0583333333334,51.53301239013674L1419.4763916666666,56.66598052978515L1420.1854208333334,69.16501770019532L1420.89445,52.93951416015627L1423.7305666666668,29.985989379882803L1425.148625,27.463003540039058L1427.9847416666667,49.92348937988282L1429.4028,36.62701416015624L1430.8208583333333,56.50650177001955L1431.5298875,59.478984069824214L1434.3660041666667,62.219505310058594L1436.4930916666667,77.05302124023437L1437.2021208333335,32.770008850097646L1438.6201791666667,75.63200531005859L1439.3292083333333,48.633012390136706L1440.7472666666667,34.45201416015625L1441.4562958333333,90.66849822998047L1442.1653250000002,61.30599822998045L1443.5833833333336,43.09400177001955L1444.2924125000002,21.546978759765615L1445.0014416666666,63.07499999999999L1449.2556166666668,37.33749999999999L1449.9646458333334,68.96199645996093L1450.6736750000002,55.50599822998048L1451.3827041666666,82.09899291992186L1452.0917333333334,16.99400177001952L1454.2188208333334,53.67898406982423L1455.6368791666669,40.8609893798828L1457.7639666666669,58.68150177001954L1460.6000833333333,52.315980529785165L1463.4362,47.82101593017578L1464.145229166667,27.535485839843737L1464.8542583333335,41.528021240234374L1465.5632875,56.95599822998047L1468.3994041666667,51.79400177001952L1469.1084333333333,65.8734893798828L1469.8174625000001,18.357005310058586L1470.5264916666667,50.778984069824205L1471.2355208333336,30.044001770019513L1472.6535791666665,46.32751770019532L1474.0716375,50.576007080078135L1474.7806666666668,65.81552124023438L1476.9077541666668,54.375000000000014L1477.6167833333334,33.97348937988283L1479.0348416666666,52.38850708007813L1480.4529,55.94098052978515L1481.8709583333334,28.695512390136734L1482.5799875,42.992491149902335L1485.4161041666669,27.332508850097668L1488.2522208333335,41.644001770019514L1489.6702791666667,52.185485839843736L1490.3793083333335,37.439010620117166L1493.2154249999999,49.662499999999994L1494.6334833333333,43.41300354003904L1495.3425125,72.13749999999999L1496.0515416666667,52.44651947021484L1498.1786291666667,46.35650177001954L1500.3057166666667,44.39899291992187L1501.723775,57.34748229980468L1505.9779500000002,51.344505310058594L1506.6869791666666,35.19148406982421L1507.3960083333334,49.32898406982421L1508.8140666666668,62.53850708007813L1509.5230958333334,56.70947875976562L1511.6501833333334,31.595512390136726L1513.7772708333332,65.5109893798828L1514.4863,27.535485839843737L1516.6133875,42.35448760986326L1517.3224166666669,56.69500885009765L1518.0314458333335,66.81598052978515L1518.740475,54.82449645996094L1520.8675625,48.574999999999996L1522.2856208333333,34.95947875976561L1524.4127083333335,41.81799468994141L1525.1217375,46.7625L1526.5397958333335,49.256501770019526L1528.6668833333333,18.632508850097658L1531.5030000000002,48.42999114990236L1532.2120291666668,46.646519470214855L1532.9210583333336,57.62298583984376L1533.6300875,52.983012390136736L1534.3391166666665,62.95901947021484L1535.757175,53.244001770019516L1536.4662041666668,56.18750000000001L1537.1752333333334,44.28301239013672L1537.8842625000002,38.90348052978517L1542.1384375,54.94052124023437L1543.5564958333334,44.1669876098633L1544.265525,88.87051239013672L1544.9745541666668,58.13049468994139L1545.6835833333334,65.04697875976562L1546.3926125,47.32802124023439L1547.1016416666669,84.11451416015625L1547.8106708333332,59.884982299804676L1549.2287291666667,50.691987609863276L1550.6467875,71.4705123901367L1551.3558166666667,47.69052124023439L1552.0648458333335,65.98951416015626L1553.482904166667,53.47600708007812L1554.1919333333333,51.24299468994142L1554.9009624999999,84.6945053100586L1556.3190208333333,53.08447875976563L1559.1551375000001,69.81749114990237" style="fill: none;" fill="none"></path></g></g></g></g></g></g><g transform="translate(40, 377)" clip-path="url(#clip_1)"><clipPath id="clip_1"><rect width="1701" height="23"></rect></clipPath><g><g><line x1="0" y1="0" x2="0" y2="5" style="visibility: inherit;" fill="rgb(0, 0, 0)" stroke="rgb(204, 204, 204)" stroke-width="1px"></line><line x1="141.80583333333334" y1="0" x2="141.80583333333334" y2="5" style="visibility: inherit;" fill="rgb(0, 0, 0)" stroke="rgb(204, 204, 204)" stroke-width="1px"></line><line x1="283.6116666666667" y1="0" x2="283.6116666666667" y2="5" style="visibility: inherit;" fill="rgb(0, 0, 0)" stroke="rgb(204, 204, 204)" stroke-width="1px"></line><line x1="425.4175" y1="0" x2="425.4175" y2="5" style="visibility: inherit;" fill="rgb(0, 0, 0)" stroke="rgb(204, 204, 204)" stroke-width="1px"></line><line x1="567.2233333333334" y1="0" x2="567.2233333333334" y2="5" style="visibility: inherit;" fill="rgb(0, 0, 0)" stroke="rgb(204, 204, 204)" stroke-width="1px"></line><line x1="709.0291666666667" y1="0" x2="709.0291666666667" y2="5" style="visibility: inherit;" fill="rgb(0, 0, 0)" stroke="rgb(204, 204, 204)" stroke-width="1px"></line><line x1="850.835" y1="0" x2="850.835" y2="5" style="visibility: inherit;" fill="rgb(0, 0, 0)" stroke="rgb(204, 204, 204)" stroke-width="1px"></line><line x1="992.6408333333335" y1="0" x2="992.6408333333335" y2="5" style="visibility: inherit;" fill="rgb(0, 0, 0)" stroke="rgb(204, 204, 204)" stroke-width="1px"></line><line x1="1134.4466666666667" y1="0" x2="1134.4466666666667" y2="5" style="visibility: inherit;" fill="rgb(0, 0, 0)" stroke="rgb(204, 204, 204)" stroke-width="1px"></line><line x1="1276.2525" y1="0" x2="1276.2525" y2="5" style="visibility: inherit;" fill="rgb(0, 0, 0)" stroke="rgb(204, 204, 204)" stroke-width="1px"></line><line x1="1418.0583333333334" y1="0" x2="1418.0583333333334" y2="5" style="visibility: inherit;" fill="rgb(0, 0, 0)" stroke="rgb(204, 204, 204)" stroke-width="1px"></line><line x1="1559.8641666666667" y1="0" x2="1559.8641666666667" y2="5" style="visibility: inherit;" fill="rgb(0, 0, 0)" stroke="rgb(204, 204, 204)" stroke-width="1px"></line><line x1="1701.67" y1="0" x2="1701.67" y2="5" style="visibility: inherit;" fill="rgb(0, 0, 0)" stroke="rgb(204, 204, 204)" stroke-width="1px"></line></g><g transform="translate(0, 8)"><text x="0" y="0" dx="0em" dy="0.95em" style="text-anchor: middle; visibility: hidden; font-family: Roboto, sans-serif; font-size: 12px; font-weight: 200;" fill="rgb(255, 255, 255)" stroke="none" stroke-width="1px">-200</text><text x="141.80583333333334" y="0" dx="0em" dy="0.95em" style="text-anchor: middle; visibility: inherit; font-family: Roboto, sans-serif; font-size: 12px; font-weight: 200;" fill="rgb(255, 255, 255)" stroke="none" stroke-width="1px">0</text><text x="283.6116666666667" y="0" dx="0em" dy="0.95em" style="text-anchor: middle; visibility: inherit; font-family: Roboto, sans-serif; font-size: 12px; font-weight: 200;" fill="rgb(255, 255, 255)" stroke="none" stroke-width="1px">200</text><text x="425.4175" y="0" dx="0em" dy="0.95em" style="text-anchor: middle; visibility: inherit; font-family: Roboto, sans-serif; font-size: 12px; font-weight: 200;" fill="rgb(255, 255, 255)" stroke="none" stroke-width="1px">400</text><text x="567.2233333333334" y="0" dx="0em" dy="0.95em" style="text-anchor: middle; visibility: inherit; font-family: Roboto, sans-serif; font-size: 12px; font-weight: 200;" fill="rgb(255, 255, 255)" stroke="none" stroke-width="1px">600</text><text x="709.0291666666667" y="0" dx="0em" dy="0.95em" style="text-anchor: middle; visibility: inherit; font-family: Roboto, sans-serif; font-size: 12px; font-weight: 200;" fill="rgb(255, 255, 255)" stroke="none" stroke-width="1px">800</text><text x="850.835" y="0" dx="0em" dy="0.95em" style="text-anchor: middle; visibility: inherit; font-family: Roboto, sans-serif; font-size: 12px; font-weight: 200;" fill="rgb(255, 255, 255)" stroke="none" stroke-width="1px">1k</text><text x="992.6408333333335" y="0" dx="0em" dy="0.95em" style="text-anchor: middle; visibility: inherit; font-family: Roboto, sans-serif; font-size: 12px; font-weight: 200;" fill="rgb(255, 255, 255)" stroke="none" stroke-width="1px">1.2k</text><text x="1134.4466666666667" y="0" dx="0em" dy="0.95em" style="text-anchor: middle; visibility: inherit; font-family: Roboto, sans-serif; font-size: 12px; font-weight: 200;" fill="rgb(255, 255, 255)" stroke="none" stroke-width="1px">1.4k</text><text x="1276.2525" y="0" dx="0em" dy="0.95em" style="text-anchor: middle; visibility: inherit; font-family: Roboto, sans-serif; font-size: 12px; font-weight: 200;" fill="rgb(255, 255, 255)" stroke="none" stroke-width="1px">1.6k</text><text x="1418.0583333333334" y="0" dx="0em" dy="0.95em" style="text-anchor: middle; visibility: inherit; font-family: Roboto, sans-serif; font-size: 12px; font-weight: 200;" fill="rgb(255, 255, 255)" stroke="none" stroke-width="1px">1.8k</text><text x="1559.8641666666667" y="0" dx="0em" dy="0.95em" style="text-anchor: middle; visibility: inherit; font-family: Roboto, sans-serif; font-size: 12px; font-weight: 200;" fill="rgb(255, 255, 255)" stroke="none" stroke-width="1px">2k</text><text x="1701.67" y="0" dx="0em" dy="0.95em" style="text-anchor: middle; visibility: hidden; font-family: Roboto, sans-serif; font-size: 12px; font-weight: 200;" fill="rgb(255, 255, 255)" stroke="none" stroke-width="1px">2.2k</text></g><line x1="0" y1="0" x2="1701.67" y2="0" fill="rgb(0, 0, 0)" stroke="rgb(204, 204, 204)" stroke-width="1px"></line></g></g></g></g></svg>