<svg viewBox="0 0 1741.666748046875 400" xmlns="http://www.w3.org/2000/svg"><g><g><g><g><g><line x1="41.171875" y1="377" x2="36.171875" y2="377" style="visibility: inherit;" fill="rgb(0, 0, 0)" stroke="rgb(204, 204, 204)" stroke-width="1px"></line><line x1="41.171875" y1="350.07142857142856" x2="36.171875" y2="350.07142857142856" style="visibility: inherit;" fill="rgb(0, 0, 0)" stroke="rgb(204, 204, 204)" stroke-width="1px"></line><line x1="41.171875" y1="323.14285714285717" x2="36.171875" y2="323.14285714285717" style="visibility: inherit;" fill="rgb(0, 0, 0)" stroke="rgb(204, 204, 204)" stroke-width="1px"></line><line x1="41.171875" y1="296.2142857142857" x2="36.171875" y2="296.2142857142857" style="visibility: inherit;" fill="rgb(0, 0, 0)" stroke="rgb(204, 204, 204)" stroke-width="1px"></line><line x1="41.171875" y1="269.2857142857143" x2="36.171875" y2="269.2857142857143" style="visibility: inherit;" fill="rgb(0, 0, 0)" stroke="rgb(204, 204, 204)" stroke-width="1px"></line><line x1="41.171875" y1="242.35714285714283" x2="36.171875" y2="242.35714285714283" style="visibility: inherit;" fill="rgb(0, 0, 0)" stroke="rgb(204, 204, 204)" stroke-width="1px"></line><line x1="41.171875" y1="215.42857142857142" x2="36.171875" y2="215.42857142857142" style="visibility: inherit;" fill="rgb(0, 0, 0)" stroke="rgb(204, 204, 204)" stroke-width="1px"></line><line x1="41.171875" y1="188.5" x2="36.171875" y2="188.5" style="visibility: inherit;" fill="rgb(0, 0, 0)" stroke="rgb(204, 204, 204)" stroke-width="1px"></line><line x1="41.171875" y1="161.57142857142858" x2="36.171875" y2="161.57142857142858" style="visibility: inherit;" fill="rgb(0, 0, 0)" stroke="rgb(204, 204, 204)" stroke-width="1px"></line><line x1="41.171875" y1="134.64285714285714" x2="36.171875" y2="134.64285714285714" style="visibility: inherit;" fill="rgb(0, 0, 0)" stroke="rgb(204, 204, 204)" stroke-width="1px"></line><line x1="41.171875" y1="107.71428571428571" x2="36.171875" y2="107.71428571428571" style="visibility: inherit;" fill="rgb(0, 0, 0)" stroke="rgb(204, 204, 204)" stroke-width="1px"></line><line x1="41.171875" y1="80.78571428571429" x2="36.171875" y2="80.78571428571429" style="visibility: inherit;" fill="rgb(0, 0, 0)" stroke="rgb(204, 204, 204)" stroke-width="1px"></line><line x1="41.171875" y1="53.857142857142875" x2="36.171875" y2="53.857142857142875" style="visibility: inherit;" fill="rgb(0, 0, 0)" stroke="rgb(204, 204, 204)" stroke-width="1px"></line><line x1="41.171875" y1="26.928571428571416" x2="36.171875" y2="26.928571428571416" style="visibility: inherit;" fill="rgb(0, 0, 0)" stroke="rgb(204, 204, 204)" stroke-width="1px"></line><line x1="41.171875" y1="0" x2="36.171875" y2="0" style="visibility: inherit;" fill="rgb(0, 0, 0)" stroke="rgb(204, 204, 204)" stroke-width="1px"></line></g><g transform="translate(31.171875, 0)"><text x="0" y="377" dx="0em" dy="0.3em" style="text-anchor: end; visibility: hidden; font-family: Roboto, sans-serif; font-size: 12px; font-weight: 200;" fill="rgb(255, 255, 255)" stroke="none" stroke-width="1px">270</text><text x="0" y="350.07142857142856" dx="0em" dy="0.3em" style="text-anchor: end; visibility: inherit; font-family: Roboto, sans-serif; font-size: 12px; font-weight: 200;" fill="rgb(255, 255, 255)" stroke="none" stroke-width="1px">275</text><text x="0" y="323.14285714285717" dx="0em" dy="0.3em" style="text-anchor: end; visibility: inherit; font-family: Roboto, sans-serif; font-size: 12px; font-weight: 200;" fill="rgb(255, 255, 255)" stroke="none" stroke-width="1px">280</text><text x="0" y="296.2142857142857" dx="0em" dy="0.3em" style="text-anchor: end; visibility: inherit; font-family: Roboto, sans-serif; font-size: 12px; font-weight: 200;" fill="rgb(255, 255, 255)" stroke="none" stroke-width="1px">285</text><text x="0" y="269.2857142857143" dx="0em" dy="0.3em" style="text-anchor: end; visibility: inherit; font-family: Roboto, sans-serif; font-size: 12px; font-weight: 200;" fill="rgb(255, 255, 255)" stroke="none" stroke-width="1px">290</text><text x="0" y="242.35714285714283" dx="0em" dy="0.3em" style="text-anchor: end; visibility: inherit; font-family: Roboto, sans-serif; font-size: 12px; font-weight: 200;" fill="rgb(255, 255, 255)" stroke="none" stroke-width="1px">295</text><text x="0" y="215.42857142857142" dx="0em" dy="0.3em" style="text-anchor: end; visibility: inherit; font-family: Roboto, sans-serif; font-size: 12px; font-weight: 200;" fill="rgb(255, 255, 255)" stroke="none" stroke-width="1px">300</text><text x="0" y="188.5" dx="0em" dy="0.3em" style="text-anchor: end; visibility: inherit; font-family: Roboto, sans-serif; font-size: 12px; font-weight: 200;" fill="rgb(255, 255, 255)" stroke="none" stroke-width="1px">305</text><text x="0" y="161.57142857142858" dx="0em" dy="0.3em" style="text-anchor: end; visibility: inherit; font-family: Roboto, sans-serif; font-size: 12px; font-weight: 200;" fill="rgb(255, 255, 255)" stroke="none" stroke-width="1px">310</text><text x="0" y="134.64285714285714" dx="0em" dy="0.3em" style="text-anchor: end; visibility: inherit; font-family: Roboto, sans-serif; font-size: 12px; font-weight: 200;" fill="rgb(255, 255, 255)" stroke="none" stroke-width="1px">315</text><text x="0" y="107.71428571428571" dx="0em" dy="0.3em" style="text-anchor: end; visibility: inherit; font-family: Roboto, sans-serif; font-size: 12px; font-weight: 200;" fill="rgb(255, 255, 255)" stroke="none" stroke-width="1px">320</text><text x="0" y="80.78571428571429" dx="0em" dy="0.3em" style="text-anchor: end; visibility: inherit; font-family: Roboto, sans-serif; font-size: 12px; font-weight: 200;" fill="rgb(255, 255, 255)" stroke="none" stroke-width="1px">325</text><text x="0" y="53.857142857142875" dx="0em" dy="0.3em" style="text-anchor: end; visibility: inherit; font-family: Roboto, sans-serif; font-size: 12px; font-weight: 200;" fill="rgb(255, 255, 255)" stroke="none" stroke-width="1px">330</text><text x="0" y="26.928571428571416" dx="0em" dy="0.3em" style="text-anchor: end; visibility: inherit; font-family: Roboto, sans-serif; font-size: 12px; font-weight: 200;" fill="rgb(255, 255, 255)" stroke="none" stroke-width="1px">335</text><text x="0" y="0" dx="0em" dy="0.3em" style="text-anchor: end; visibility: hidden; font-family: Roboto, sans-serif; font-size: 12px; font-weight: 200;" fill="rgb(255, 255, 255)" stroke="none" stroke-width="1px">340</text></g><line x1="41.171875" y1="0" x2="41.171875" y2="377" fill="rgb(0, 0, 0)" stroke="rgb(204, 204, 204)" stroke-width="1px"></line></g></g><g transform="translate(41, 0)" clip-path="url(#clip_0)"><clipPath id="clip_0"><rect width="1700" height="377"></rect></clipPath><g><g><g><line x1="0" y1="0" x2="0" y2="377" fill="rgb(0, 0, 0)" stroke="rgb(189, 189, 189)" stroke-width="1px" opacity="0.25"></line><line x1="141.70817708333334" y1="0" x2="141.70817708333334" y2="377" fill="rgb(0, 0, 0)" stroke="rgb(189, 189, 189)" stroke-width="1px" opacity="0.25"></line><line x1="283.4163541666667" y1="0" x2="283.4163541666667" y2="377" fill="rgb(0, 0, 0)" stroke="rgb(189, 189, 189)" stroke-width="1px" opacity="0.25"></line><line x1="425.12453125" y1="0" x2="425.12453125" y2="377" fill="rgb(0, 0, 0)" stroke="rgb(189, 189, 189)" stroke-width="1px" opacity="0.25"></line><line x1="566.8327083333334" y1="0" x2="566.8327083333334" y2="377" fill="rgb(0, 0, 0)" stroke="rgb(189, 189, 189)" stroke-width="1px" opacity="0.25"></line><line x1="708.5408854166667" y1="0" x2="708.5408854166667" y2="377" fill="rgb(0, 0, 0)" stroke="rgb(189, 189, 189)" stroke-width="1px" opacity="0.25"></line><line x1="850.2490625" y1="0" x2="850.2490625" y2="377" fill="rgb(0, 0, 0)" stroke="rgb(189, 189, 189)" stroke-width="1px" opacity="0.25"></line><line x1="991.9572395833335" y1="0" x2="991.9572395833335" y2="377" fill="rgb(0, 0, 0)" stroke="rgb(189, 189, 189)" stroke-width="1px" opacity="0.25"></line><line x1="1133.6654166666667" y1="0" x2="1133.6654166666667" y2="377" fill="rgb(0, 0, 0)" stroke="rgb(189, 189, 189)" stroke-width="1px" opacity="0.25"></line><line x1="1275.37359375" y1="0" x2="1275.37359375" y2="377" fill="rgb(0, 0, 0)" stroke="rgb(189, 189, 189)" stroke-width="1px" opacity="0.25"></line><line x1="1417.0817708333334" y1="0" x2="1417.0817708333334" y2="377" fill="rgb(0, 0, 0)" stroke="rgb(189, 189, 189)" stroke-width="1px" opacity="0.25"></line><line x1="1558.7899479166667" y1="0" x2="1558.7899479166667" y2="377" fill="rgb(0, 0, 0)" stroke="rgb(189, 189, 189)" stroke-width="1px" opacity="0.25"></line><line x1="1700.498125" y1="0" x2="1700.498125" y2="377" fill="rgb(0, 0, 0)" stroke="rgb(189, 189, 189)" stroke-width="1px" opacity="0.25"></line></g><g><line x1="0" y1="377" x2="1700.498125" y2="377" fill="rgb(0, 0, 0)" stroke="rgb(189, 189, 189)" stroke-width="1px" opacity="0.25"></line><line x1="0" y1="350.07142857142856" x2="1700.498125" y2="350.07142857142856" fill="rgb(0, 0, 0)" stroke="rgb(189, 189, 189)" stroke-width="1px" opacity="0.25"></line><line x1="0" y1="323.14285714285717" x2="1700.498125" y2="323.14285714285717" fill="rgb(0, 0, 0)" stroke="rgb(189, 189, 189)" stroke-width="1px" opacity="0.25"></line><line x1="0" y1="296.2142857142857" x2="1700.498125" y2="296.2142857142857" fill="rgb(0, 0, 0)" stroke="rgb(189, 189, 189)" stroke-width="1px" opacity="0.25"></line><line x1="0" y1="269.2857142857143" x2="1700.498125" y2="269.2857142857143" fill="rgb(0, 0, 0)" stroke="rgb(189, 189, 189)" stroke-width="1px" opacity="0.25"></line><line x1="0" y1="242.35714285714283" x2="1700.498125" y2="242.35714285714283" fill="rgb(0, 0, 0)" stroke="rgb(189, 189, 189)" stroke-width="1px" opacity="0.25"></line><line x1="0" y1="215.42857142857142" x2="1700.498125" y2="215.42857142857142" fill="rgb(0, 0, 0)" stroke="rgb(189, 189, 189)" stroke-width="1px" opacity="0.25"></line><line x1="0" y1="188.5" x2="1700.498125" y2="188.5" fill="rgb(0, 0, 0)" stroke="rgb(189, 189, 189)" stroke-width="1px" opacity="0.25"></line><line x1="0" y1="161.57142857142858" x2="1700.498125" y2="161.57142857142858" fill="rgb(0, 0, 0)" stroke="rgb(189, 189, 189)" stroke-width="1px" opacity="0.25"></line><line x1="0" y1="134.64285714285714" x2="1700.498125" y2="134.64285714285714" fill="rgb(0, 0, 0)" stroke="rgb(189, 189, 189)" stroke-width="1px" opacity="0.25"></line><line x1="0" y1="107.71428571428571" x2="1700.498125" y2="107.71428571428571" fill="rgb(0, 0, 0)" stroke="rgb(189, 189, 189)" stroke-width="1px" opacity="0.25"></line><line x1="0" y1="80.78571428571429" x2="1700.498125" y2="80.78571428571429" fill="rgb(0, 0, 0)" stroke="rgb(189, 189, 189)" stroke-width="1px" opacity="0.25"></line><line x1="0" y1="53.857142857142875" x2="1700.498125" y2="53.857142857142875" fill="rgb(0, 0, 0)" stroke="rgb(189, 189, 189)" stroke-width="1px" opacity="0.25"></line><line x1="0" y1="26.928571428571416" x2="1700.498125" y2="26.928571428571416" fill="rgb(0, 0, 0)" stroke="rgb(189, 189, 189)" stroke-width="1px" opacity="0.25"></line><line x1="0" y1="0" x2="1700.498125" y2="0" fill="rgb(0, 0, 0)" stroke="rgb(189, 189, 189)" stroke-width="1px" opacity="0.25"></line></g></g></g><g><g><line x1="0" y1="1831.1428571428573" x2="1700.498125" y2="1831.1428571428573" fill="rgb(0, 0, 0)" stroke="rgb(153, 153, 153)" stroke-width="1.5px"></line></g></g><g><g><line x1="141.70817708333334" y1="0" x2="141.70817708333334" y2="377" fill="rgb(0, 0, 0)" stroke="rgb(153, 153, 153)" stroke-width="1.5px"></line></g></g><g><g><g><g><g><path stroke="rgb(255, 112, 67)" stroke-width="2px" d="M179.96938489583334,530.7082495553152L182.09500755208336,344.68571428571425L184.22063020833335,344.68571428571425L184.92917109375,344.68571428571425L185.63771197916665,344.68571428571425L186.34625286458336,344.68571428571425L187.76333463541667,344.68571428571425L188.47187552083335,344.68571428571425L189.18041640625,344.68571428571425L189.88895729166666,344.68571428571425L191.30603906250002,344.68571428571425L192.01457994791667,344.68571428571425L196.26582526041668,344.68571428571425L197.68290703125,344.68571428571425L198.3914479166667,344.68571428571425L199.8085296875,344.68571428571425L200.51707057291668,344.68571428571425L201.93415234375,344.68571428571425L204.76831588541668,344.68571428571425L205.47685677083334,344.68571428571425L209.01956119791666,344.68571428571425L211.85372473958336,344.68571428571425L212.562265625,344.68571428571425L214.68788828125003,344.68571428571425L216.8135109375,344.68571428571425L217.5220518229167,344.68571428571425L218.93913359375003,344.68571428571425L222.48183802083332,344.68571428571425L223.89891979166666,344.68571428571425L227.44162421875004,344.68571428571425L230.27578776041665,344.68571428571425L230.98432864583336,344.68571428571425L232.40141041666666,344.68571428571425L233.81849218750003,344.68571428571425L234.52703307291665,344.68571428571425L235.23557395833336,344.68571428571425L238.06973750000003,344.68571428571425L238.77827838541666,344.68571428571425L243.02952369791666,344.68571428571425L243.73806458333337,344.68571428571425L245.15514635416667,344.68571428571425L245.86368723958336,344.68571428571425L247.98930989583337,344.68571428571425L252.94909609375,344.68571428571425L254.36617786458336,344.68571428571425L255.07471875,344.68571428571425L256.49180052083335,344.68571428571425L257.9088822916667,344.68571428571425L259.3259640625,344.68571428571425L262.1601276041667,344.68571428571425L262.86866848958334,344.68571428571425L263.577209375,344.68571428571425L265.70283203125,344.68571428571425L266.4113729166667,344.68571428571425L267.1199138020833,344.68571428571425L267.8284546875,344.68571428571425L269.24553645833333,344.68571428571425L269.95407734375004,344.68571428571425L272.0797,344.68571428571425L272.7882408854167,344.68571428571425L273.4967817708333,344.68571428571425L275.6224044270833,344.68571428571425L276.33094531250003,344.68571428571425L277.03948619791663,344.68571428571425L277.74802708333334,344.68571428571425L279.87364973958336,344.68571428571425L282.70781328125,344.68571428571425L283.4163541666667,344.68571428571425L284.83343593750004,344.68571428571425L285.54197682291664,344.68571428571425L286.25051770833335,344.68571428571425L286.95905859375006,344.68571428571425L288.37614036458336,344.68571428571425L289.79322213541667,344.68571428571425L291.21030390625003,344.68571428571425L292.62738567708334,344.68571428571425L294.04446744791665,344.68571428571425L294.75300833333336,344.68571428571425L296.17009010416666,344.68571428571425L296.87863098958337,344.68571428571425L297.58717187499997,344.68571428571425L298.2957127604167,344.68571428571425L299.0042536458334,344.68571428571425L300.4213354166667,344.68571428571425L301.12987630208335,344.68571428571425L303.96403984375,344.68571428571425L308.21528515625,330.57516915457586L309.63236692708335,330.57516915457586L310.3409078125,330.57516915457586L311.0494486979167,330.57516915457586L312.46653046875,330.57516915457586L313.1750713541667,330.57516915457586L314.592153125,330.57516915457586L315.3006940104167,330.57516915457586L316.00923489583334,330.57516915457586L316.71777578125,330.57516915457586L320.2604802083333,330.57516915457586L320.96902109375003,330.57516915457586L321.6775619791667,330.57516915457586L323.8031846354167,330.57516915457586L324.51172552083335,330.57516915457586L325.22026640625,330.57516915457586L325.9288072916667,330.57516915457586L327.3458890625,330.57516915457586L333.01421614583336,330.57516915457586L333.72275703125,330.57516915457586L335.8483796875,330.57516915457586L336.5569205729167,330.57516915457586L337.26546145833333,330.57516915457586L338.68254322916664,330.57516915457586L340.09962500000006,330.57516915457586L341.51670677083337,330.57516915457586L342.22524765625,330.57516915457586L343.6423294270834,330.57516915457586L345.0594111979167,330.57516915457586L345.76795208333334,330.57516915457586L347.18503385416665,330.57516915457586L350.72773828124997,330.57516915457586L351.4362791666667,330.57516915457586L352.1448200520834,330.57516915457586L352.8533609375,330.57516915457586L357.10460625,330.57516915457586L358.5216880208334,330.57516915457586L359.9387697916667,330.57516915457586L360.6473106770834,330.57516915457586L362.77293333333336,330.57516915457586L363.48147421875,330.57516915457586L365.607096875,330.57516915457586L367.02417864583333,330.57516915457586L367.73271953125,330.57516915457586L369.8583421875,330.57516915457586L371.2754239583333,330.57516915457586L374.8181283854167,330.57516915457586L375.52666927083334,330.57516915457586L376.23521015625005,330.57516915457586L376.9437510416667,330.57516915457586L380.48645546875,330.57516915457586L381.1949963541667,330.57516915457586L382.61207812500004,330.57516915457586L384.73770078125006,330.57516915457586L385.44624166666665,330.57516915457586L386.15478255208336,330.57516915457586L386.8633234375,330.57516915457586L388.2804052083333,330.57516915457586L389.6974869791667,330.57516915457586L391.11456875000005,330.57516915457586L391.82310963541664,330.57516915457586L392.53165052083335,330.57516915457586L395.3658140625,330.57516915457586L396.7828958333334,330.57516915457586L398.1999776041667,330.57516915457586L398.90851848958334,330.57516915457586L399.617059375,330.57516915457586L400.32560026041665,330.57516915457586L401.03414114583336,330.57516915457586L401.74268203125,330.57516915457586L402.45122291666667,330.57516915457586L406.7024682291667,330.57516915457586L408.8280908854167,330.57516915457586L409.53663177083337,330.57516915457586L414.49641796875,330.57516915457586L415.2049588541667,330.57516915457586L418.0391223958333,330.57516915457586L418.74766328125,330.57516915457586L419.4562041666667,330.57516915457586L420.16474505208333,330.57516915457586L420.8732859375,330.57516915457586L421.5818268229167,330.57516915457586L422.29036770833335,330.57516915457586L422.99890859375,330.57516915457586L423.7074494791667,330.57516915457586L424.4159903645833,330.57516915457586L425.8330721354167,330.57516915457586L426.5416130208334,330.57516915457586L427.95869479166663,330.57516915457586L430.7928583333334,330.57516915457586L431.50139921874995,330.57516915457586L433.627021875,330.57516915457586L434.33556276041674,330.57516915457586L435.0441036458334,330.57516915457586L435.75264453125,330.57516915457586L437.87826718750006,330.57516915457586L440.00388984374996,330.57516915457586L440.71243072916667,330.57516915457586L442.83805338541674,330.57516915457586L443.5465942708333,330.57516915457586L446.38075781250006,330.57516915457586L447.0892986979167,330.57516915457586L449.2149213541667,330.57516915457586L449.9234622395834,330.57516915457586L450.63200312500004,330.57516915457586L451.34054401041675,330.57516915457586L452.0490848958333,330.57516915457586L452.75762578125,330.57516915457586L453.46616666666665,330.57516915457586L454.17470755208336,330.57516915457586L455.5917893229167,330.57516915457586L456.3003302083333,330.57516915457586L457.00887109375,330.57516915457586L457.7174119791667,330.57516915457586L460.5515755208333,297.29149431501116L461.26011640625,294.4908176967076L461.9686572916667,294.4908176967076L462.67719817708337,294.4908176967076L463.3857390625001,294.4908176967076L464.8028208333333,294.4908176967076L466.2199026041667,294.4908176967076L467.63698437500005,294.4908176967076L468.34552526041665,294.4908176967076L470.4711479166667,294.4908176967076L471.1796888020834,294.4908176967076L471.8882296875001,193.61649431501115L473.30531145833334,193.61649431501115L474.7223932291667,193.61649431501115L477.5565567708333,193.61649431501115L478.26509765625,193.61649431501115L480.3907203125,193.61649431501115L481.09926119791663,193.61649431501115L481.80780208333334,193.61649431501115L482.51634296875005,193.61649431501115L483.2248838541667,193.61649431501115L483.9334247395834,193.61649431501115L484.64196562499995,123.76377345493862L486.0590473958333,123.76377345493862L486.76758828125,123.76377345493862L487.47612916666674,123.76377345493862L488.1846700520834,123.76377345493862L489.60175182291664,106.9602068219866L491.7273744791667,106.9602068219866L494.5615380208333,106.9602068219866L496.6871606770833,106.9602068219866L497.3957015625,106.9602068219866L498.10424244791665,106.9602068219866L500.2298651041667,106.9602068219866L501.64694687499997,106.9602068219866L502.3554877604167,106.9602068219866L503.0640286458334,106.9602068219866L503.77256953125004,106.9602068219866L504.48111041666675,106.9602068219866L505.1896513020833,106.9602068219866L505.8981921875,106.9602068219866L508.0238148437501,106.9602068219866L508.7323557291667,106.9602068219866L509.4408966145833,106.9602068219866L510.1494375,106.9602068219866L512.2750601562501,106.9602068219866L517.2348463541666,106.9602068219866L519.3604690104168,106.9602068219866L520.0690098958333,106.9602068219866L521.4860916666667,106.9602068219866L522.1946325520834,106.9602068219866L522.9031734375,106.9602068219866L523.6117143229167,106.9602068219866L524.3202552083334,106.9602068219866L525.7373369791667,106.9602068219866L526.4458778645833,106.9602068219866L527.15441875,106.9602068219866L528.5715005208334,106.9602068219866L529.2800414062501,106.9602068219866L531.4056640625,106.9602068219866L532.8227458333334,106.9602068219866L534.2398276041666,106.9602068219866L534.9483684895833,106.9602068219866L535.656909375,106.9602068219866L539.9081546875001,106.9602068219866L540.6166955729167,106.9602068219866L541.3252364583334,106.9602068219866L544.1594,106.9602068219866L546.28502265625,106.9602068219866L547.7021044270833,106.9602068219866L549.8277270833333,106.9602068219866L552.6618906250001,106.9602068219866L555.4960541666667,106.9602068219866L556.2045950520834,106.9602068219866L556.9131359375001,106.9602068219866L558.3302177083333,106.9602068219866L559.7472994791667,106.9602068219866L560.4558403645834,106.9602068219866L561.16438125,106.9602068219866L562.5814630208333,106.9602068219866L563.9985447916666,106.9602068219866L564.7070856770833,106.9602068219866L565.4156265625,106.9602068219866L566.1241674479168,106.9602068219866L567.54124921875,106.9602068219866L568.2497901041667,106.9602068219866L568.9583309895834,106.9602068219866L570.3754127604167,106.9602068219866L572.5010354166667,106.9602068219866L573.9181171875001,106.9602068219866L576.04373984375,106.9602068219866L576.7522807291667,106.9602068219866L578.1693625,106.9602068219866L579.5864442708333,106.9602068219866L581.0035260416668,106.9602068219866L582.4206078125001,106.9602068219866L583.1291486979167,106.9602068219866L585.2547713541667,106.9602068219866L586.671853125,106.9602068219866L587.3803940104167,106.9602068219866L590.2145575520834,106.9602068219866L591.6316393229166,106.9602068219866L593.04872109375,106.9602068219866L595.1743437499999,106.9602068219866L595.8828846354166,106.9602068219866L596.5914255208334,106.9602068219866L597.2999664062501,106.9602068219866L598.0085072916668,106.9602068219866L598.7170481770834,106.9602068219866L601.5512117187501,106.9602068219866L602.9682934895833,106.9602068219866L603.676834375,106.9602068219866L604.3853752604167,106.9602068219866L605.0939161458334,106.9602068219866L605.80245703125,106.9602068219866L607.9280796875,106.9602068219866L608.6366205729166,106.9602068219866L609.3451614583333,106.9602068219866L614.3049476562501,106.9602068219866L616.4305703125,106.9602068219866L619.9732747395833,106.9602068219866L620.681815625,106.9602068219866L621.3903565104167,106.9602068219866L623.5159791666666,106.9602068219866L624.9330609375,106.9602068219866L625.6416018229168,106.9602068219866L626.3501427083334,106.9602068219866L628.4757653645834,106.9602068219866L632.0184697916667,106.9602068219866L633.4355515625,106.9602068219866L634.1440924479167,106.9602068219866L634.8526333333334,106.9602068219866L635.5611742187501,106.9602068219866L636.9782559895833,106.9602068219866L639.1038786458334,106.9602068219866L639.8124195312499,106.9602068219866L641.2295013020833,106.9602068219866L644.06366484375,106.9602068219866L644.7722057291667,106.9602068219866L646.1892875000001,106.9602068219866L648.31491015625,106.9602068219866L649.7319919270833,106.9602068219866L651.1490736979167,106.9602068219866L651.8576145833334,106.9602068219866L652.56615546875,106.9602068219866L653.9832372395833,106.9602068219866L655.4003190104168,106.9602068219866L656.1088598958333,106.9602068219866L656.81740078125,106.9602068219866L657.5259416666667,106.9602068219866L658.2344825520834,106.9602068219866L659.6515643229168,106.9602068219866L660.3601052083333,106.9602068219866L661.06864609375,106.9602068219866L664.6113505208333,106.9602068219866L665.31989140625,106.9602068219866L666.0284322916667,106.9602068219866L667.4455140625,106.9602068219866L668.1540549479167,106.9602068219866L668.8625958333333,106.9602068219866L669.57113671875,106.9602068219866L674.5309229166667,106.9602068219866L676.6565455729167,106.9602068219866L677.3650864583333,106.9602068219866L678.7821682291667,106.9602068219866L682.32487265625,106.9602068219866L683.0334135416667,106.9602068219866L683.7419544270834,92.63435145786829L685.8675770833333,92.63435145786829L686.57611796875,92.63435145786829L688.7017406250001,92.63435145786829L689.4102815104167,92.63435145786829L690.82736328125,92.63435145786829L691.5359041666667,92.63435145786829L692.9529859375,92.63435145786829L693.6615268229167,92.63435145786829L694.3700677083333,92.63435145786829L695.07860859375,92.63435145786829L695.7871494791667,92.63435145786829L700.0383947916667,78.36207711356026L700.7469356770835,78.36207711356026L702.1640174479166,78.36207711356026L703.5810992187501,78.36207711356026L704.9981809895834,78.36207711356026L705.706721875,75.66921997070312L707.8323445312501,75.66921997070312L708.5408854166667,65.43639569963726L711.3750489583334,65.43639569963726L712.08358984375,65.43639569963726L712.7921307291667,65.43639569963726L713.5006716145833,65.43639569963726L715.6262942708333,65.43639569963726L717.7519169270834,65.43639569963726L721.2946213541668,65.43639569963726L722.0031622395833,65.43639569963726L723.4202440104167,65.43639569963726L724.1287848958334,65.43639569963726L724.8373257812501,65.43639569963726L726.2544075520833,65.43639569963726L726.9629484375,65.43639569963726L727.6714893229167,65.43639569963726L728.3800302083334,65.43639569963726L731.21419375,65.43639569963726L731.9227346354168,65.43639569963726L733.3398164062501,65.43639569963726L734.0483572916667,65.43639569963726L734.7568981770834,65.43639569963726L736.1739799479167,65.43639569963726L736.8825208333334,65.43639569963726L739.0081434895833,65.43639569963726L740.4252252604167,65.43639569963726L743.9679296875,65.43639569963726L744.6764705729167,65.43639569963726L746.8020932291666,65.43639569963726L748.9277158854168,65.43639569963726L751.0533385416667,65.43639569963726L752.4704203125001,65.43639569963726L754.59604296875,65.43639569963726L755.3045838541667,65.43639569963726L758.1387473958334,65.43639569963726L758.84728828125,65.43639569963726L765.9326971354168,65.43639569963726L767.34977890625,65.43639569963726L768.0583197916667,65.43639569963726L768.7668606770834,65.43639569963726L769.4754015625001,65.43639569963726L770.8924833333333,65.43639569963726L772.3095651041667,65.43639569963726L773.726646875,65.43639569963726L775.85226953125,65.43639569963726L777.2693513020834,65.43639569963726L777.9778921875001,65.43639569963726L780.10351484375,65.43639569963726L780.8120557291667,65.43639569963726L782.2291375000001,65.43639569963726L783.6462192708333,65.43639569963726L784.35476015625,65.43639569963726L785.0633010416667,65.43639569963726L786.4803828125001,65.43639569963726L787.1889236979166,65.43639569963726L789.3145463541667,65.43639569963726L792.1487098958333,65.43639569963726L792.8572507812501,65.43639569963726L794.2743325520834,65.43639569963726L795.6914143229167,65.43639569963726L798.5255778645834,65.43639569963726L799.23411875,65.43639569963726L799.9426596354167,65.43639569963726L800.6512005208333,65.43639569963726L801.35974140625,65.43639569963726L802.0682822916667,65.43639569963726L802.7768231770834,65.43639569963726L804.1939049479166,65.43639569963726L807.0280684895835,37.80765511648997L808.4451502604167,37.80765511648997L809.1536911458334,37.80765511648997L811.2793138020834,37.80765511648997L814.1134773437501,37.80765511648997L816.2391,37.80765511648997L817.6561817708334,37.80765511648997L818.36472265625,37.80765511648997L819.0732635416667,37.80765511648997L821.9074270833333,37.80765511648997L823.3245088541668,37.80765511648997L824.0330497395834,37.80765511648997L824.741590625,37.80765511648997L825.4501315104167,37.80765511648997L826.8672132812501,37.80765511648997L827.5757541666668,37.80765511648997L829.7013768229167,37.80765511648997L833.24408125,37.80765511648997L834.6611630208334,37.80765511648997L835.36970390625,37.80765511648997L836.7867856770833,37.80765511648997L837.4953265625,37.80765511648997L840.3294901041667,37.80765511648997L841.746571875,37.80765511648997L842.4551127604167,37.80765511648997L843.1636536458334,37.80765511648997L844.5807354166667,37.80765511648997L845.9978171875,37.80765511648997L846.7063580729167,37.80765511648997L847.4148989583334,37.80765511648997L848.8319807291666,37.80765511648997L849.5405216145833,37.80765511648997L850.9576033854166,37.80765511648997L851.6661442708335,37.80765511648997L852.3746851562499,37.80765511648997L853.0832260416668,37.80765511648997L853.7917669270834,37.80765511648997L854.5003078125,37.80765511648997L858.0430122395835,37.80765511648997L859.4600940104166,37.80765511648997L860.87717578125,37.80765511648997L861.5857166666668,37.80765511648997L862.2942575520833,37.80765511648997L865.8369619791666,37.80765511648997L868.6711255208335,37.80765511648997L870.0882072916668,37.80765511648997L870.7967481770834,37.80765511648997L875.0479934895833,37.80765511648997L875.7565343750001,37.80765511648997L876.4650752604166,37.80765511648997L877.1736161458334,37.80765511648997L877.88215703125,37.80765511648997L880.7163205729167,37.80765511648997L882.1334023437502,37.80765511648997L882.8419432291666,37.80765511648997L887.0931885416666,37.80765511648997L887.8017294270834,37.80765511648997L889.9273520833333,37.80765511648997L891.3444338541667,37.80765511648997L892.0529747395833,37.80765511648997L892.7615156250001,37.80765511648997L894.1785973958334,37.80765511648997L896.3042200520835,37.80765511648997L897.0127609374999,37.80765511648997L897.7213018229168,37.80765511648997L899.1383835937502,37.80765511648997L899.8469244791668,37.80765511648997L900.5554653645833,37.80765511648997L901.2640062500001,37.80765511648997L901.9725471354167,37.80765511648997L902.6810880208335,37.80765511648997L904.8067106770834,37.80765511648997L905.5152515625,37.80765511648997L906.9323333333333,37.80765511648997L907.6408742187499,37.80765511648997L908.3494151041667,37.80765511648997L910.4750377604166,37.80765511648997L911.1835786458334,37.80765511648997L911.89211953125,37.80765511648997L914.7262830729168,37.80765511648997L915.4348239583334,37.80765511648997L916.14336484375,37.80765511648997L919.6860692708335,37.80765511648997L921.1031510416666,37.80765511648997L922.5202328125,37.80765511648997L923.2287736979168,37.80765511648997L923.9373145833334,37.80765511648997L926.0629372395833,37.80765511648997L926.7714781250002,37.80765511648997L927.4800190104166,37.80765511648997L928.1885598958332,37.80765511648997L928.8971007812501,37.80765511648997L929.6056416666667,37.80765511648997L930.3141825520835,37.80765511648997L931.0227234375,37.80765511648997L932.4398052083334,37.80765511648997L934.5654278645833,37.80765511648997L935.9825096354167,37.80765511648997L936.6910505208333,37.80765511648997L938.8166731770834,37.80765511648997L939.5252140625,37.80765511648997L940.9422958333334,37.80765511648997L941.6508367187499,37.80765511648997L942.3593776041668,37.80765511648997L943.0679184895833,37.80765511648997L943.7764593750002,37.80765511648997L945.1935411458333,37.80765511648997L945.9020820312501,37.80765511648997L946.6106229166667,37.80765511648997L948.7362455729166,37.80765511648997L950.8618682291668,37.80765511648997L952.9874908854167,37.80765511648997L953.6960317708333,37.80765511648997L955.1131135416666,37.80765511648997L955.8216544270834,37.80765511648997L956.5301953125,37.80765511648997L957.2387361979166,37.80765511648997L957.9472770833335,37.80765511648997L958.65581796875,37.80765511648997L960.0728997395834,37.80765511648997L963.6156041666667,37.80765511648997L965.0326859375001,37.80765511648997L966.4497677083334,37.80765511648997L967.8668494791668,37.80765511648997L968.5753903645833,37.80765511648997L972.8266356770835,37.80765511648997L973.5351765625,37.80765511648997L974.9522583333335,37.80765511648997L975.66079921875,37.80765511648997L976.3693401041668,37.80765511648997L979.2035036458333,37.80765511648997L980.6205854166667,37.80765511648997L982.0376671875001,37.80765511648997L983.4547489583334,37.80765511648997L984.16328984375,37.80765511648997L984.8718307291668,37.80765511648997L986.9974533854167,37.80765511648997L987.7059942708333,37.80765511648997L988.4145351562502,37.80765511648997L989.8316169270832,37.80765511648997L990.5401578125001,37.80765511648997L992.66578046875,37.80765511648997L993.3743213541666,37.80765511648997L995.4999440104168,37.80765511648997L996.2084848958333,37.80765511648997L996.9170257812501,37.80765511648997L998.3341075520833,37.80765511648997L1001.16827109375,37.80765511648997L1001.8768119791666,37.80765511648997L1002.5853528645835,37.80765511648997L1004.0024346354168,37.80765511648997L1004.7109755208334,37.80765511648997L1008.2536799479167,37.80765511648997L1009.6707617187501,37.80765511648997L1011.796384375,37.80765511648997L1012.5049252604168,37.80765511648997L1014.6305479166667,37.80765511648997L1015.3390888020833,37.80765511648997L1018.8817932291666,37.80765511648997L1020.298875,37.80765511648997L1021.0074158854168,37.80765511648997L1021.7159567708334,37.80765511648997L1022.42449765625,37.80765511648997L1023.1330385416668,37.80765511648997L1023.8415794270833,37.80765511648997L1024.5501203125002,37.80765511648997L1026.67574296875,37.80765511648997L1027.3842838541666,37.80765511648997L1028.0928247395834,37.80765511648997L1028.801365625,37.80765511648997L1030.2184473958334,37.80765511648997L1031.6355291666669,37.80765511648997L1032.3440700520832,37.80765511648997L1034.4696927083332,37.80765511648997L1035.17823359375,37.80765511648997L1037.30385625,37.80765511648997L1039.4294789062499,37.80765511648997L1042.2636424479167,37.80765511648997L1045.806346875,37.80765511648997L1046.5148877604165,37.80765511648997L1047.2234286458333,37.80765511648997L1050.0575921875002,37.80765511648997L1052.1832148437502,37.80765511648997L1055.7259192708334,37.80765511648997L1057.8515419270834,37.80765511648997L1059.9771645833332,37.80765511648997L1061.3942463541666,37.80765511648997L1062.1027872395834,37.80765511648997L1064.2284098958335,37.80765511648997L1067.0625734374999,37.80765511648997L1069.8967369791667,37.80765511648997L1072.7309005208335,37.80765511648997L1073.43944140625,37.80765511648997L1076.9821458333333,37.80765511648997L1078.3992276041668,37.80765511648997L1079.1077684895836,37.80765511648997L1080.5248502604165,37.80765511648997L1081.2333911458334,37.80765511648997L1082.6504729166668,37.80765511648997L1087.6102591145832,37.80765511648997L1093.9871270833332,37.80765511648997L1094.69566796875,37.80765511648997L1096.1127497395833,37.80765511648997L1096.821290625,37.80765511648997L1098.94691328125,37.80765511648997L1099.6554541666667,37.80765511648997L1101.0725359374999,37.80765511648997L1103.9066994791667,37.80765511648997L1105.3237812500001,37.80765511648997L1108.1579447916665,37.80765511648997L1108.8664856770833,37.80765511648997L1109.5750265625,37.80765511648997L1110.2835674479168,37.80765511648997L1110.9921083333334,37.80765511648997L1113.8262718750002,37.80765511648997L1114.5348127604166,37.80765511648997L1115.95189453125,37.80765511648997L1116.6604354166666,37.80765511648997L1119.4945989583334,37.80765511648997L1123.0373033854166,37.80765511648997L1123.7458442708335,37.80765511648997L1126.5800078125,37.80765511648997L1128.7056304687499,37.80765511648997L1130.831253125,37.80765511648997L1131.5397940104167,37.80765511648997L1132.9568757812501,37.80765511648997L1133.6654166666667,37.80765511648997L1135.7910393229167,37.80765511648997L1137.20812109375,37.80765511648997L1142.8764481770834,37.80765511648997L1145.0020708333334,37.80765511648997L1145.71061171875,37.80765511648997L1147.1276934895834,37.80765511648997L1148.5447752604166,37.80765511648997L1149.2533161458332,37.80765511648997L1155.6301841145832,37.80765511648997L1156.338725,37.80765511648997L1159.1728885416667,37.80765511648997L1160.5899703125,37.80765511648997L1161.2985111979167,37.80765511648997L1162.0070520833335,37.80765511648997L1162.71559296875,37.80765511648997L1164.8412156250001,37.80765511648997L1166.2582973958333,37.80765511648997L1166.9668382812501,37.80765511648997L1167.6753791666667,37.80765511648997L1168.3839200520836,37.80765511648997L1169.0924609375002,37.80765511648997L1169.8010018229165,37.80765511648997L1170.5095427083334,37.80765511648997L1171.9266244791668,37.80765511648997L1172.6351653645834,37.80765511648997L1173.34370625,37.80765511648997L1174.0522471354168,37.80765511648997L1174.7607880208334,37.80765511648997L1175.4693289062502,37.80765511648997L1176.1778697916666,37.80765511648997L1176.8864106770834,37.80765511648997L1178.3034924479166,37.80765511648997L1183.2632786458332,37.80765511648997L1185.3889013020835,37.80765511648997L1186.0974421875,37.80765511648997L1187.5145239583335,37.80765511648997L1188.22306484375,37.80765511648997L1191.0572283854167,37.80765511648997L1191.7657692708333,37.80765511648997L1192.47431015625,37.80765511648997L1195.3084736979167,37.80765511648997L1196.0170145833335,37.80765511648997L1196.72555546875,37.80765511648997L1197.4340963541667,37.80765511648997L1198.1426372395833,37.80765511648997L1199.5597190104168,37.80765511648997L1200.2682598958334,37.80765511648997L1203.1024234375002,37.80765511648997L1203.8109643229166,37.80765511648997L1204.5195052083334,37.80765511648997L1205.9365869791666,37.80765511648997L1208.0622096354168,37.80765511648997L1210.8963731770832,37.80765511648997L1211.6049140625,37.80765511648997L1212.3134549479166,37.80765511648997L1213.73053671875,37.80765511648997L1215.1476184895835,37.80765511648997L1215.856159375,37.80765511648997L1220.8159455729167,37.80765511648997L1222.9415682291667,37.80765511648997L1224.35865,37.80765511648997L1228.6098953125002,37.80765511648997L1230.7355179687502,37.80765511648997L1231.4440588541665,37.80765511648997L1233.5696815104168,37.80765511648997L1236.4038450520834,37.80765511648997L1237.8209268229166,37.80765511648997L1238.5294677083334,37.80765511648997L1240.6550903645834,37.80765511648997L1241.36363125,37.80765511648997L1242.0721721354168,37.80765511648997L1243.48925390625,37.80765511648997L1244.9063356770832,37.80765511648997L1248.4490401041667,37.80765511648997L1249.866121875,37.80765511648997L1250.574662760417,37.80765511648997L1251.2832036458335,37.80765511648997L1252.7002854166667,37.80765511648997L1254.1173671875001,37.80765511648997L1254.8259080729167,37.80765511648997L1255.5344489583333,37.80765511648997L1256.2429898437501,37.80765511648997L1258.3686125,37.80765511648997L1259.7856942708333,37.80765511648997L1260.49423515625,37.80765511648997L1261.2027760416668,37.80765511648997L1261.9113169270834,37.80765511648997L1262.6198578125002,37.80765511648997L1264.7454804687502,37.80765511648997L1268.2881848958334,37.80765511648997L1271.8308893229168,37.80765511648997L1272.5394302083332,37.80765511648997L1273.24797109375,37.80765511648997L1276.0821346354167,37.80765511648997L1276.7906755208335,37.80765511648997L1277.49921640625,37.80765511648997L1282.4590026041667,37.80765511648997L1283.1675434895835,37.80765511648997L1284.5846252604167,37.80765511648997L1285.2931661458335,37.80765511648997L1286.7102479166667,37.80765511648997L1289.5444114583333,37.80765511648997L1290.9614932291668,37.80765511648997L1292.3785750000002,37.80765511648997L1293.7956567708334,37.80765511648997L1294.50419765625,37.80765511648997L1297.3383611979168,37.80765511648997L1300.1725247395832,37.80765511648997L1300.881065625,37.80765511648997L1301.5896065104166,37.80765511648997L1302.2981473958334,37.80765511648997L1303.7152291666669,37.80765511648997L1304.4237700520835,37.80765511648997L1307.9664744791667,37.80765511648997L1308.6750153645833,37.80765511648997L1310.0920971354167,37.80765511648997L1311.50917890625,37.80765511648997L1312.2177197916667,37.80765511648997L1312.9262606770835,37.80765511648997L1313.6348015625,37.80765511648997L1315.0518833333333,37.80765511648997L1316.4689651041667,37.80765511648997L1319.3031286458336,37.80765511648997L1320.7202104166665,37.80765511648997L1322.1372921875,37.80765511648997L1324.2629148437502,37.80765511648997L1324.9714557291668,37.80765511648997L1327.8056192708334,37.80765511648997L1329.9312419270834,37.80765511648997L1331.3483236979168,37.80765511648997L1332.0568645833334,37.80765511648997L1332.76540546875,37.80765511648997L1333.4739463541669,37.80765511648997L1335.5995690104166,37.80765511648997L1336.3081098958335,37.80765511648997L1337.01665078125,37.80765511648997L1337.7251916666667,37.80765511648997L1338.4337325520835,37.80765511648997L1339.1422734375,37.80765511648997L1341.2678960937499,37.80765511648997L1341.9764369791667,37.80765511648997L1342.6849778645833,37.80765511648997L1344.1020596354167,37.80765511648997L1344.8106005208335,37.80765511648997L1345.5191414062501,37.80765511648997L1346.2276822916667,37.80765511648997L1347.6447640625,37.80765511648997L1349.0618458333333,37.80765511648997L1351.1874684895834,37.80765511648997L1352.6045502604168,37.80765511648997L1353.3130911458334,37.80765511648997L1354.0216320312502,37.80765511648997L1354.7301729166666,37.80765511648997L1358.9814182291668,37.80765511648997L1359.6899591145834,37.80765511648997L1361.8155817708332,37.80765511648997L1362.52412265625,37.80765511648997L1363.2326635416666,37.80765511648997L1363.9412044270834,37.80765511648997L1367.4839088541669,37.80765511648997L1373.1522359375,37.80765511648997L1373.8607768229167,37.80765511648997L1374.5693177083335,37.80765511648997L1376.6949403645833,37.80765511648997L1378.1120221354167,37.80765511648997L1380.2376447916668,37.80765511648997L1380.9461856770836,37.80765511648997L1381.6547265625,37.80765511648997L1382.3632674479165,37.80765511648997L1383.78034921875,37.80765511648997L1384.4888901041668,37.80765511648997L1386.6145127604168,37.80765511648997L1390.1572171875,37.80765511648997L1390.8657580729166,37.80765511648997L1392.28283984375,37.80765511648997L1392.9913807291668,37.80765511648997L1394.4084625,37.80765511648997L1399.3682486979167,37.80765511648997L1400.0767895833335,37.80765511648997L1400.78533046875,37.80765511648997L1402.9109531249999,37.80765511648997L1403.6194940104167,37.80765511648997L1405.7451166666667,37.80765511648997L1406.4536575520833,37.80765511648997L1407.1621984375001,37.80765511648997L1407.8707393229167,37.80765511648997L1409.28782109375,37.80765511648997L1409.9963619791667,37.80765511648997L1411.41344375,37.80765511648997L1412.8305255208334,37.80765511648997L1414.2476072916668,37.80765511648997L1414.9561481770834,37.80765511648997L1417.0817708333334,37.80765511648997L1418.4988526041666,37.80765511648997L1419.2073934895834,37.80765511648997L1419.915934375,37.80765511648997L1422.7500979166668,37.80765511648997L1424.1671796875,37.80765511648997L1427.0013432291667,37.80765511648997L1428.418425,37.80765511648997L1429.8355067708333,37.80765511648997L1430.54404765625,37.80765511648997L1433.3782111979167,37.80765511648997L1435.5038338541667,37.80765511648997L1436.2123747395835,37.80765511648997L1437.6294565104167,37.80765511648997L1438.3379973958333,37.80765511648997L1439.7550791666667,37.80765511648997L1440.4636200520833,37.80765511648997L1441.1721609375002,37.80765511648997L1442.5892427083336,37.80765511648997L1443.2977835937502,37.80765511648997L1444.0063244791666,37.80765511648997L1448.2575697916668,37.80765511648997L1448.9661106770834,37.80765511648997L1449.6746515625002,37.80765511648997L1450.3831924479166,37.80765511648997L1451.0917333333334,37.80765511648997L1453.2173559895834,37.80765511648997L1454.6344377604169,37.80765511648997L1456.7600604166669,37.80765511648997L1459.5942239583333,37.80765511648997L1462.4283875,37.80765511648997L1463.136928385417,37.80765511648997L1463.8454692708335,37.80765511648997L1464.55401015625,37.80765511648997L1467.3881736979167,37.80765511648997L1468.0967145833333,37.80765511648997L1468.8052554687501,37.80765511648997L1469.5137963541667,37.80765511648997L1470.2223372395836,37.80765511648997L1471.6394190104165,37.80765511648997L1473.05650078125,37.80765511648997L1473.7650416666668,37.80765511648997L1475.8906643229168,37.80765511648997L1476.5992052083334,37.80765511648997L1478.0162869791666,37.80765511648997L1479.43336875,37.80765511648997L1480.8504505208334,37.80765511648997L1481.55899140625,37.80765511648997L1484.3931549479169,37.80765511648997L1487.2273184895835,37.80765511648997L1488.6444002604167,37.80765511648997L1489.3529411458335,37.80765511648997L1492.1871046874999,37.80765511648997L1493.6041864583333,37.80765511648997L1494.31272734375,37.80765511648997L1495.0212682291667,37.80765511648997L1497.1468908854167,37.80765511648997L1499.2725135416667,37.80765511648997L1500.6895953125,37.80765511648997L1504.9408406250002,37.80765511648997L1505.6493815104166,37.80765511648997L1506.3579223958334,37.80765511648997L1507.7750041666668,37.80765511648997L1508.4835450520834,37.80765511648997L1510.6091677083334,37.80765511648997L1512.7347903645832,37.80765511648997L1513.44333125,37.80765511648997L1515.56895390625,37.80765511648997L1516.2774947916669,37.80765511648997L1516.9860356770835,37.80765511648997L1517.6945765625,37.80765511648997L1519.82019921875,37.80765511648997L1521.2372809895833,37.80765511648997L1523.3629036458335,37.80765511648997L1524.07144453125,37.80765511648997L1525.4885263020835,37.80765511648997L1527.6141489583333,37.80765511648997L1530.4483125000002,37.80765511648997L1531.1568533854168,37.80765511648997L1531.8653942708336,37.80765511648997L1532.57393515625,37.80765511648997L1533.2824760416665,37.80765511648997L1534.6995578125,37.80765511648997L1535.4080986979168,37.80765511648997L1536.1166395833334,37.80765511648997L1536.8251804687502,37.80765511648997L1541.07642578125,37.80765511648997L1542.4935075520834,37.80765511648997L1543.2020484375,37.80765511648997L1543.9105893229168,37.80765511648997L1544.6191302083334,37.80765511648997L1545.32767109375,37.80765511648997L1546.0362119791669,37.80765511648997L1546.7447528645832,37.80765511648997L1548.1618346354167,37.80765511648997L1549.57891640625,37.80765511648997L1550.2874572916667,37.80765511648997L1550.9959981770835,37.80765511648997L1552.413079947917,37.80765511648997L1553.1216208333333,37.80765511648997L1553.8301617187499,37.80765511648997L1555.2472434895833,37.80765511648997L1558.0814070312501,37.80765511648997" style="fill: none;" fill="none"></path></g></g></g></g></g></g><g transform="translate(41, 377)" clip-path="url(#clip_1)"><clipPath id="clip_1"><rect width="1700" height="23"></rect></clipPath><g><g><line x1="0" y1="0" x2="0" y2="5" style="visibility: inherit;" fill="rgb(0, 0, 0)" stroke="rgb(204, 204, 204)" stroke-width="1px"></line><line x1="141.70817708333334" y1="0" x2="141.70817708333334" y2="5" style="visibility: inherit;" fill="rgb(0, 0, 0)" stroke="rgb(204, 204, 204)" stroke-width="1px"></line><line x1="283.4163541666667" y1="0" x2="283.4163541666667" y2="5" style="visibility: inherit;" fill="rgb(0, 0, 0)" stroke="rgb(204, 204, 204)" stroke-width="1px"></line><line x1="425.12453125" y1="0" x2="425.12453125" y2="5" style="visibility: inherit;" fill="rgb(0, 0, 0)" stroke="rgb(204, 204, 204)" stroke-width="1px"></line><line x1="566.8327083333334" y1="0" x2="566.8327083333334" y2="5" style="visibility: inherit;" fill="rgb(0, 0, 0)" stroke="rgb(204, 204, 204)" stroke-width="1px"></line><line x1="708.5408854166667" y1="0" x2="708.5408854166667" y2="5" style="visibility: inherit;" fill="rgb(0, 0, 0)" stroke="rgb(204, 204, 204)" stroke-width="1px"></line><line x1="850.2490625" y1="0" x2="850.2490625" y2="5" style="visibility: inherit;" fill="rgb(0, 0, 0)" stroke="rgb(204, 204, 204)" stroke-width="1px"></line><line x1="991.9572395833335" y1="0" x2="991.9572395833335" y2="5" style="visibility: inherit;" fill="rgb(0, 0, 0)" stroke="rgb(204, 204, 204)" stroke-width="1px"></line><line x1="1133.6654166666667" y1="0" x2="1133.6654166666667" y2="5" style="visibility: inherit;" fill="rgb(0, 0, 0)" stroke="rgb(204, 204, 204)" stroke-width="1px"></line><line x1="1275.37359375" y1="0" x2="1275.37359375" y2="5" style="visibility: inherit;" fill="rgb(0, 0, 0)" stroke="rgb(204, 204, 204)" stroke-width="1px"></line><line x1="1417.0817708333334" y1="0" x2="1417.0817708333334" y2="5" style="visibility: inherit;" fill="rgb(0, 0, 0)" stroke="rgb(204, 204, 204)" stroke-width="1px"></line><line x1="1558.7899479166667" y1="0" x2="1558.7899479166667" y2="5" style="visibility: inherit;" fill="rgb(0, 0, 0)" stroke="rgb(204, 204, 204)" stroke-width="1px"></line><line x1="1700.498125" y1="0" x2="1700.498125" y2="5" style="visibility: inherit;" fill="rgb(0, 0, 0)" stroke="rgb(204, 204, 204)" stroke-width="1px"></line></g><g transform="translate(0, 8)"><text x="0" y="0" dx="0em" dy="0.95em" style="text-anchor: middle; visibility: hidden; font-family: Roboto, sans-serif; font-size: 12px; font-weight: 200;" fill="rgb(255, 255, 255)" stroke="none" stroke-width="1px">-200</text><text x="141.70817708333334" y="0" dx="0em" dy="0.95em" style="text-anchor: middle; visibility: inherit; font-family: Roboto, sans-serif; font-size: 12px; font-weight: 200;" fill="rgb(255, 255, 255)" stroke="none" stroke-width="1px">0</text><text x="283.4163541666667" y="0" dx="0em" dy="0.95em" style="text-anchor: middle; visibility: inherit; font-family: Roboto, sans-serif; font-size: 12px; font-weight: 200;" fill="rgb(255, 255, 255)" stroke="none" stroke-width="1px">200</text><text x="425.12453125" y="0" dx="0em" dy="0.95em" style="text-anchor: middle; visibility: inherit; font-family: Roboto, sans-serif; font-size: 12px; font-weight: 200;" fill="rgb(255, 255, 255)" stroke="none" stroke-width="1px">400</text><text x="566.8327083333334" y="0" dx="0em" dy="0.95em" style="text-anchor: middle; visibility: inherit; font-family: Roboto, sans-serif; font-size: 12px; font-weight: 200;" fill="rgb(255, 255, 255)" stroke="none" stroke-width="1px">600</text><text x="708.5408854166667" y="0" dx="0em" dy="0.95em" style="text-anchor: middle; visibility: inherit; font-family: Roboto, sans-serif; font-size: 12px; font-weight: 200;" fill="rgb(255, 255, 255)" stroke="none" stroke-width="1px">800</text><text x="850.2490625" y="0" dx="0em" dy="0.95em" style="text-anchor: middle; visibility: inherit; font-family: Roboto, sans-serif; font-size: 12px; font-weight: 200;" fill="rgb(255, 255, 255)" stroke="none" stroke-width="1px">1k</text><text x="991.9572395833335" y="0" dx="0em" dy="0.95em" style="text-anchor: middle; visibility: inherit; font-family: Roboto, sans-serif; font-size: 12px; font-weight: 200;" fill="rgb(255, 255, 255)" stroke="none" stroke-width="1px">1.2k</text><text x="1133.6654166666667" y="0" dx="0em" dy="0.95em" style="text-anchor: middle; visibility: inherit; font-family: Roboto, sans-serif; font-size: 12px; font-weight: 200;" fill="rgb(255, 255, 255)" stroke="none" stroke-width="1px">1.4k</text><text x="1275.37359375" y="0" dx="0em" dy="0.95em" style="text-anchor: middle; visibility: inherit; font-family: Roboto, sans-serif; font-size: 12px; font-weight: 200;" fill="rgb(255, 255, 255)" stroke="none" stroke-width="1px">1.6k</text><text x="1417.0817708333334" y="0" dx="0em" dy="0.95em" style="text-anchor: middle; visibility: inherit; font-family: Roboto, sans-serif; font-size: 12px; font-weight: 200;" fill="rgb(255, 255, 255)" stroke="none" stroke-width="1px">1.8k</text><text x="1558.7899479166667" y="0" dx="0em" dy="0.95em" style="text-anchor: middle; visibility: inherit; font-family: Roboto, sans-serif; font-size: 12px; font-weight: 200;" fill="rgb(255, 255, 255)" stroke="none" stroke-width="1px">2k</text><text x="1700.498125" y="0" dx="0em" dy="0.95em" style="text-anchor: middle; visibility: hidden; font-family: Roboto, sans-serif; font-size: 12px; font-weight: 200;" fill="rgb(255, 255, 255)" stroke="none" stroke-width="1px">2.2k</text></g><line x1="0" y1="0" x2="1700.498125" y2="0" fill="rgb(0, 0, 0)" stroke="rgb(204, 204, 204)" stroke-width="1px"></line></g></g></g></g></svg>